<svg width="176" height="183" viewBox="0 0 176 183" fill="none" xmlns="http://www.w3.org/2000/svg">
<path d="M89.0171 167.087H167.286V69.311L106.019 95.631L89.0171 167.087Z" fill="white" stroke="black" stroke-width="4"/>
<path fill-rule="evenodd" clip-rule="evenodd" d="M154.612 129.143C153.945 126.557 153.331 125.46 152.146 124.561C151.038 123.721 149.42 123.015 147.059 122.499C144.6 122.069 144.531 120.792 143.914 118.739C143.734 118.122 142.843 117.958 142.458 118.402C142.404 118.344 142.347 118.29 142.289 118.242C142.341 117.948 141.913 117.104 141.927 116.822C142.076 113.884 141.115 112.408 138.714 111.859C138.192 111.74 134.646 111.67 134.137 111.81C131.912 112.425 129.722 114.378 130.057 116.729C129.358 117.642 128.675 118.199 127.597 118.493C125.199 118.797 122.801 119.068 120.402 119.299C115.707 120.035 111.304 122.519 108.295 126.142C108.017 126.477 107.937 126.931 108.182 127.287C107.99 128.109 106.91 130.101 107.76 130.664C106.363 134.005 103.147 140.462 103.141 142.307C103.116 150.057 103.953 160.144 111.605 164.432C111.911 164.733 111.955 165.067 112.087 165.514C112.424 166.925 113.645 167.934 114.983 167.851C121.57 167.998 127.949 167.194 134.537 167.155C137.442 167.138 140.935 167.572 143.459 167.86C145.982 168.149 148.529 167.894 150.951 167.155C151.155 167.477 151.568 167.664 151.987 167.572C154.497 167.073 156.528 165.527 158.296 163.837C158.836 162.854 160.946 160.055 160.108 159.081C160.868 155.868 160.828 152.416 159.477 149.357C159.669 148.796 159.32 148.18 159.477 147.601C159.591 147.182 159.883 147.009 160.03 146.594C160.237 146.01 160.012 145.226 159.779 144.63C159.684 144.333 159.955 144.014 160.03 143.711C160.388 142.281 159.569 142.407 158.979 141.452C158.988 141.449 159.142 140.767 159.141 140.77C159.231 140.283 159.005 139.659 158.808 139.253C158.674 138.978 158.388 138.806 158.105 138.837C158.391 137.867 158.752 137.06 159.141 136.125C159.829 134.478 160.699 132.9 161.687 131.409C162.091 130.798 161.548 130.09 160.894 130.049C158.775 129.914 156.68 129.61 154.612 129.143Z" fill="white"/>
<path fill-rule="evenodd" clip-rule="evenodd" d="M148.43 141.602C147.583 141.27 146.67 141.086 145.754 141.015C146.247 140.929 146.742 140.845 147.241 140.802C147.59 140.773 147.912 140.776 148.174 141.04C148.349 141.216 148.431 141.442 148.545 141.65C148.508 141.633 148.469 141.617 148.43 141.602ZM157.523 138.497C156.136 138.568 154.747 138.898 153.492 139.495C152.978 139.74 152.513 140.093 152.377 140.675C152.308 140.972 152.325 141.278 152.361 141.578C152.389 141.805 152.396 142.095 152.593 142.249C152.627 142.275 152.663 142.295 152.7 142.31C152.237 142.518 151.796 142.769 151.405 143.028C151.046 143.264 150.678 143.629 150.513 144.039C150.499 143.993 150.485 143.949 150.472 143.908C150.19 143.076 149.756 142.394 149.073 141.936C149.194 141.881 149.277 141.753 149.238 141.575C149.076 140.834 148.391 140.19 147.617 140.236C146.77 140.285 145.86 140.594 145.094 140.983C144.815 140.977 144.536 140.981 144.26 140.993C144.213 140.994 144.215 141.059 144.26 141.064C144.484 141.092 144.707 141.124 144.931 141.161C145.462 141.246 145.992 141.353 146.51 141.487C147.131 141.648 147.774 141.809 148.355 142.09C149.481 142.636 150.179 144.062 150.035 145.303C150.012 145.506 149.933 146.121 149.65 146.058C149.412 146.004 149.317 145.506 149.233 145.322C149.01 144.832 148.607 144.512 148.125 144.296C147.557 144.041 146.951 143.869 146.363 143.668C146.03 143.554 145.697 143.44 145.363 143.327C145.022 143.21 144.697 143.049 144.334 143.131C144.114 143.18 144.089 143.442 144.212 143.592C144.4 143.821 144.678 143.888 144.948 143.982C145.305 144.106 145.661 144.23 146.017 144.354C146.567 144.545 147.143 144.707 147.68 144.941L147.663 144.979C147.619 144.967 147.568 145.01 147.577 145.064C147.657 145.559 147.769 146.131 147.645 146.627C147.547 147.02 147.201 147.455 146.753 147.34C146.823 147.276 146.85 147.165 146.802 147.062C146.624 146.683 144.298 145.185 144.091 145.741C144.084 145.761 144.105 145.775 144.122 145.772C144.299 145.736 144.595 146.037 144.736 146.133C144.941 146.27 145.148 146.405 145.35 146.546C145.571 146.701 145.787 146.863 145.998 147.031C146.163 147.162 146.288 147.299 146.477 147.366C146.378 147.413 146.299 147.501 146.266 147.614C146.18 147.907 146.015 148.155 145.728 148.285C145.427 148.419 145.088 148.334 144.771 148.367C144.339 148.411 143.963 148.616 143.648 148.909C142.988 149.526 142.656 150.612 141.733 150.903C141.181 151.077 140.569 150.968 140.01 150.889C139.386 150.801 138.779 150.731 138.15 150.823C137.549 150.911 136.98 151.119 136.431 151.373C135.916 151.611 135.346 151.881 134.889 152.235C134.795 151.945 134.7 151.659 134.628 151.363C134.458 150.663 134.367 149.949 134.344 149.23C134.324 148.546 134.362 147.858 134.421 147.176C134.45 146.836 134.496 146.497 134.525 146.156C134.533 146.071 134.548 145.979 134.559 145.887C135.375 145.406 136.232 145.037 137.096 144.658C137.099 144.657 137.101 144.655 137.103 144.655C137.13 144.642 137.156 144.631 137.183 144.619C137.182 144.618 137.181 144.616 137.18 144.615C137.279 144.554 137.347 144.474 137.389 144.384C138.634 143.558 139.675 142.431 140.451 141.117C140.776 140.566 141.089 139.995 141.515 139.512C141.968 138.997 142.506 138.691 143.171 138.532C143.95 138.345 144.752 138.233 145.549 138.17C145.985 138.136 146.471 138.082 146.946 138.084C147.277 138.087 147.6 138.115 147.897 138.197C148.337 138.318 148.594 138.652 148.871 138.99C149.135 139.315 149.397 139.64 149.644 139.978C149.877 140.298 150.097 140.63 150.289 140.977C150.404 141.185 150.51 141.399 150.6 141.62C150.631 141.698 150.672 141.787 150.691 141.868C150.71 141.95 150.675 142.037 150.767 142.037C150.388 142.042 150.392 142.647 150.769 142.625C152.243 142.539 150.131 139.663 149.823 139.262C149.386 138.694 148.935 137.953 148.235 137.689C148.226 137.686 148.215 137.682 148.205 137.679C148.408 137.486 148.569 137.255 148.723 137.02C148.881 136.778 149.07 136.501 149.122 136.214C149.155 136.032 148.928 135.928 148.82 136.087C148.663 136.321 148.588 136.616 148.47 136.872C148.351 137.132 148.206 137.378 148.091 137.64C147.815 137.556 147.516 137.517 147.212 137.504C147.596 136.985 148.251 135.984 148.33 135.856C148.692 135.26 149.038 134.647 149.367 134.032C149.724 133.367 150.029 132.674 150.371 132.001C150.564 131.619 150.759 131.234 150.975 130.864C151.049 130.737 151.128 130.61 151.219 130.494C151.236 130.471 151.258 130.452 151.279 130.431C151.303 130.418 151.327 130.403 151.341 130.396C151.465 130.324 151.509 130.159 151.596 130.054C151.735 129.885 151.899 129.865 152.109 129.863C152.556 129.858 153.004 129.876 153.45 129.888C154.106 129.907 154.761 129.933 155.416 129.967C155.615 129.978 155.812 129.988 156.01 130.001C156.963 130.057 157.915 130.131 158.865 130.223C159.705 130.303 160.545 130.434 161.386 130.496C160.248 133.201 158.985 135.856 157.555 138.419C157.541 138.445 157.53 138.471 157.523 138.497ZM151.205 145.465C151.021 145.549 150.843 145.654 150.677 145.773C150.704 145.587 150.711 145.391 150.704 145.195C150.841 145.342 151.016 145.426 151.205 145.465ZM159.045 140.812C159.032 140.814 159.02 140.821 159.014 140.834C158.76 141.358 158.866 141.943 159.281 142.354C159.498 142.568 159.972 142.81 159.957 143.162C159.944 143.446 159.634 143.685 159.502 143.92C159.378 144.139 159.332 144.379 159.431 144.616C159.557 144.92 159.91 145.041 160.031 145.339C160.184 145.718 159.935 146.175 159.761 146.504C159.599 146.81 159.389 147.115 159.25 147.438C158.317 147.921 157.482 148.661 156.764 149.413C155.978 150.236 155.304 151.203 154.056 151.179C153.931 151.177 153.836 151.242 153.779 151.333C153.432 151.35 153.084 151.356 152.736 151.358C152.126 151.361 151.515 151.355 150.905 151.336C150.862 151.188 150.893 150.988 150.891 150.863C150.883 150.461 150.88 150.06 150.863 149.659C150.858 149.547 150.854 149.435 150.849 149.323C151.069 149.72 151.497 149.9 151.985 149.873C152.771 149.827 153.56 149.699 154.338 149.583C154.747 149.523 155.156 149.454 155.564 149.38C155.899 149.321 156.372 149.336 156.606 149.067C156.661 149.005 156.665 148.89 156.578 148.848C156.346 148.734 156.2 148.797 155.945 148.846C155.634 148.907 155.323 148.964 155.011 149.018C154.411 149.122 153.811 149.218 153.208 149.303C152.866 149.351 152.522 149.399 152.178 149.436C151.878 149.468 151.54 149.512 151.298 149.286C150.811 148.83 151.084 148.066 151.392 147.605C151.398 147.596 151.398 147.588 151.396 147.58C151.687 147.512 151.977 147.432 152.266 147.377C152.823 147.269 153.383 147.179 153.944 147.099C155.096 146.934 156.257 146.826 157.415 146.716C157.702 146.689 157.705 146.237 157.415 146.264C155.751 146.417 154.078 146.561 152.435 146.882C152.024 146.961 151.615 147.051 151.209 147.153C151.017 147.201 150.811 147.275 150.609 147.277C150.597 147.277 150.585 147.277 150.573 147.276C150.179 147.264 150.121 146.927 150.338 146.646C150.365 146.612 150.392 146.577 150.42 146.544C150.803 146.088 151.28 145.784 151.771 145.469C152.321 145.394 152.87 145.227 153.409 145.104C154.739 144.801 156.069 144.498 157.4 144.196C157.661 144.137 157.55 143.736 157.289 143.795C156.279 144.023 155.269 144.252 154.258 144.481L152.78 144.816C152.484 144.883 152.116 145.016 151.768 145.065C151.597 145.088 151.431 145.091 151.281 145.056C150.796 144.941 150.772 144.336 150.981 143.977C151.215 143.573 151.657 143.32 152.05 143.092C152.73 142.694 153.454 142.409 154.161 142.08C154.287 142.053 154.412 142.025 154.538 141.997C155.268 141.837 156.102 141.758 156.789 141.464C156.995 141.376 156.883 141.052 156.679 141.056C156.146 141.068 155.588 141.258 155.067 141.37C154.503 141.493 153.938 141.614 153.374 141.736C153.317 141.748 152.982 141.855 152.931 141.831C152.899 141.816 152.888 141.705 152.877 141.631C152.843 141.389 152.817 141.135 152.855 140.893C152.938 140.349 153.391 140.093 153.851 139.884C154.873 139.42 155.994 139.129 157.11 139.013C157.367 138.986 157.624 138.969 157.883 138.961C158.187 138.952 158.437 138.898 158.591 139.197C158.833 139.669 158.966 140.275 159.045 140.812ZM157.625 157.9C157.403 157.129 157.463 156.307 157.311 155.521C157.232 155.116 157.124 154.714 157.007 154.318C156.912 153.998 156.754 153.658 156.736 153.325C156.735 153.303 156.762 153.29 156.78 153.3C157.094 153.48 157.335 153.869 157.514 154.174C157.729 154.54 157.893 154.922 158.025 155.324C158.289 156.126 158.505 157.092 158.165 157.9C158.064 158.14 157.709 158.188 157.625 157.9ZM150.74 147.697C150.929 147.679 151.117 147.643 151.305 147.601C151.095 147.806 150.9 148.053 150.792 148.327C150.776 148.116 150.754 147.907 150.726 147.698C150.73 147.698 150.736 147.698 150.74 147.697ZM148.931 163.73C148.599 163.499 148.357 163.175 148.076 162.889C147.799 162.608 148.231 162.176 148.508 162.457C148.749 162.7 148.957 163.005 149.24 163.202C149.376 163.297 149.439 163.468 149.35 163.621C149.271 163.755 149.067 163.825 148.931 163.73ZM147.08 154.829C147.686 154.567 148.282 154.282 148.916 154.093C149.295 153.981 149.455 154.571 149.079 154.683C148.495 154.857 147.947 155.117 147.389 155.358C147.03 155.513 146.719 154.985 147.08 154.829ZM140.679 154.646C140.531 154.28 141.124 154.123 141.27 154.483C141.438 154.898 141.631 155.302 141.799 155.717C141.947 156.083 141.354 156.24 141.208 155.88C141.04 155.465 140.847 155.061 140.679 154.646ZM134.362 161.946C134.263 162.078 134.099 162.149 133.943 162.056C133.813 161.978 133.733 161.77 133.833 161.637C134.125 161.248 134.421 160.864 134.763 160.518C135.04 160.237 135.473 160.67 135.196 160.95C134.89 161.26 134.623 161.599 134.362 161.946ZM133.459 120.986C133.74 121.178 133.986 121.411 134.226 121.651C134.505 121.929 134.072 122.362 133.793 122.083C133.591 121.881 133.387 121.676 133.15 121.514C133.013 121.421 132.951 121.247 133.04 121.096C133.119 120.96 133.322 120.893 133.459 120.986ZM142.649 130.835C142.491 131.153 142.348 131.465 142.339 131.826C142.329 132.22 141.717 132.22 141.726 131.826C141.738 131.353 141.913 130.943 142.121 130.526C142.297 130.173 142.825 130.483 142.649 130.835ZM146.022 122.925C146.351 122.705 146.657 123.236 146.331 123.453C146.066 123.629 145.802 123.806 145.537 123.982C145.208 124.201 144.902 123.671 145.228 123.453C145.493 123.277 145.757 123.101 146.022 122.925ZM131.395 136.755C131.339 137.144 130.749 136.977 130.805 136.592C130.891 135.997 130.996 135.409 131.158 134.829C131.263 134.45 131.854 134.612 131.748 134.992C131.587 135.572 131.481 136.16 131.395 136.755ZM129.249 143.766C128.855 143.757 128.855 143.145 129.249 143.154C129.605 143.161 129.956 143.255 130.3 143.341C130.683 143.436 130.52 144.027 130.137 143.931C129.846 143.858 129.55 143.772 129.249 143.766ZM128.456 157.889C128.321 157.955 128.182 158.014 128.045 158.076C127.771 158.202 127.497 158.327 127.224 158.453C126.653 158.715 126.083 158.977 125.513 159.241C124.373 159.768 123.224 160.277 122.081 160.799C120.915 161.332 119.753 161.871 118.591 162.413C118.044 162.668 117.493 162.914 116.943 163.163C116.473 163.376 115.891 163.747 115.375 163.782C115.348 163.784 115.34 163.75 115.355 163.733C115.55 163.511 115.861 163.382 116.117 163.238C116.379 163.091 116.646 162.952 116.912 162.812C117.465 162.519 118.02 162.228 118.579 161.945C119.697 161.379 120.817 160.818 121.937 160.257C123.08 159.685 124.221 159.109 125.374 158.557C125.917 158.297 126.46 158.038 127.004 157.78C127.298 157.64 127.593 157.501 127.888 157.361C128.015 157.301 128.141 157.236 128.271 157.182C128.444 157.111 128.575 157.125 128.754 157.081C129.044 157.01 129.17 157.379 128.947 157.54C128.763 157.673 128.666 157.786 128.456 157.889ZM124.369 164.164C124.306 164.012 124.438 163.826 124.583 163.788C124.757 163.742 124.896 163.848 124.96 164.002C125.127 164.41 125.366 164.784 125.674 165.101C125.949 165.383 125.517 165.816 125.241 165.533C124.856 165.137 124.579 164.674 124.369 164.164ZM121.362 154.34C121.083 154.061 121.516 153.629 121.795 153.908L122.589 154.701C122.868 154.98 122.435 155.412 122.156 155.134L121.362 154.34ZM113.222 153.047C112.651 153.214 111.986 153.368 111.597 153.855C111.578 153.878 111.546 153.848 111.557 153.824C112.055 152.792 113.483 152.43 114.472 152.069C115.171 151.813 115.889 151.601 116.612 151.412C116.54 150.587 116.739 149.702 116.809 148.881C116.883 148.005 116.943 147.126 116.974 146.246C117.005 145.349 117.013 144.446 116.983 143.549C116.954 142.655 116.838 141.772 116.787 140.881C116.782 140.795 116.902 140.791 116.928 140.862C117.229 141.689 117.357 142.605 117.455 143.476C117.555 144.374 117.589 145.27 117.576 146.173C117.563 147.102 117.509 148.029 117.434 148.954C117.399 149.393 117.359 149.831 117.32 150.27C117.291 150.605 117.277 150.937 117.209 151.261C117.645 151.153 118.083 151.052 118.519 150.954C119.909 150.64 121.305 150.349 122.689 150.01C123.369 149.844 124.039 149.644 124.715 149.467C125.352 149.3 126.025 149.098 126.679 149.024C126.912 148.997 126.942 149.317 126.787 149.425C126.256 149.798 125.55 150.058 124.936 150.267C124.32 150.476 123.679 150.627 123.047 150.782C121.73 151.106 120.401 151.371 119.073 151.647C117.747 151.922 116.419 152.196 115.108 152.535C114.477 152.699 113.847 152.864 113.222 153.047ZM110.096 136.673C109.755 136.873 109.447 136.344 109.787 136.145C110.231 135.884 110.705 135.688 111.182 135.497C111.549 135.35 111.706 135.943 111.345 136.087C110.916 136.259 110.495 136.439 110.096 136.673ZM108.861 159.412C108.52 159.61 108.212 159.081 108.552 158.883C109.031 158.606 109.555 158.421 110.051 158.178C110.404 158.006 110.714 158.534 110.36 158.707C109.864 158.949 109.34 159.134 108.861 159.412ZM108.306 146.504C108.637 146.818 109.078 146.966 109.494 147.131C109.856 147.274 109.697 147.866 109.331 147.721C108.813 147.516 108.285 147.328 107.873 146.937C107.587 146.665 108.021 146.233 108.306 146.504ZM111.962 128.975C112.325 129.117 112.166 129.709 111.799 129.565C111.392 129.406 110.972 129.284 110.565 129.125C110.202 128.982 110.361 128.391 110.728 128.534C111.135 128.694 111.555 128.815 111.962 128.975ZM118.412 122.012C118.798 121.947 118.962 122.537 118.574 122.603C118.093 122.684 117.62 122.779 117.164 122.955C116.795 123.098 116.637 122.506 117.001 122.365C117.457 122.189 117.931 122.094 118.412 122.012ZM120.543 138.965C120.189 138.791 120.499 138.263 120.851 138.436C121.223 138.619 121.608 138.76 122.013 138.846C122.398 138.928 122.234 139.518 121.85 139.436C121.394 139.339 120.96 139.17 120.543 138.965ZM122.555 129.416C122.936 129.311 123.098 129.902 122.718 130.006C122.05 130.189 121.363 130.284 120.69 130.447C120.307 130.539 120.145 129.949 120.527 129.856C121.2 129.694 121.888 129.599 122.555 129.416ZM131.093 126.419C131.481 126.491 131.316 127.081 130.931 127.009C130.521 126.934 130.105 126.932 129.69 126.932C129.295 126.932 129.296 126.32 129.69 126.32C130.162 126.32 130.628 126.333 131.093 126.419ZM158.94 129.617C157.94 129.521 156.938 129.445 155.934 129.387C155.888 129.385 155.842 129.382 155.795 129.379C155.79 129.369 155.783 129.359 155.776 129.348C155.448 128.868 155.207 128.387 154.998 127.844C154.799 127.327 154.605 126.794 154.297 126.327C153.947 125.795 153.473 125.379 152.954 125.019C152.639 125.23 152.346 125.478 152.079 125.741C151.798 126.017 151.365 125.585 151.646 125.308C151.884 125.075 152.137 124.859 152.405 124.664C152.096 124.476 151.78 124.299 151.472 124.124C150.317 123.465 149.135 122.856 147.928 122.299C147.367 122.04 146.799 121.809 146.227 121.576C145.92 121.45 145.616 121.289 145.308 121.144C145.33 120.926 145.265 120.683 145.098 120.54C144.975 120.435 144.88 120.396 144.733 120.322C144.7 120.31 144.68 120.304 144.671 120.3C144.678 120.301 144.697 120.307 144.73 120.318C144.808 120.354 144.815 120.343 144.749 120.287C144.745 120.163 144.501 119.901 144.445 119.773C144.251 119.335 144.19 118.871 143.903 118.472C143.507 117.922 142.843 117.714 142.224 117.901C142.16 117.239 142.143 116.548 141.893 115.957C141.887 115.941 141.864 115.934 141.854 115.952C141.594 116.395 141.572 116.888 141.552 117.399C141.533 117.879 141.551 118.37 141.614 118.846C141.574 118.877 141.534 118.906 141.492 118.934C141.294 119.064 141.081 119.164 140.858 119.239C140.432 119.379 139.986 119.441 139.54 119.462C138.388 119.517 137.201 119.401 136.069 119.203C134.923 119.004 133.167 118.704 132.147 118.131C131.474 117.753 130.854 117.292 130.225 116.845C130.453 116.11 130.511 115.321 130.281 114.7C130.254 114.626 130.138 114.612 130.115 114.7C129.971 115.292 129.929 115.888 129.738 116.473C129.735 116.481 129.732 116.491 129.729 116.499C129.669 116.459 129.609 116.419 129.55 116.379C129.412 116.288 129.225 116.356 129.142 116.486C127.82 118.568 125.727 118.687 123.529 119.059C121.124 119.466 118.706 119.905 116.393 120.701C114.182 121.463 112.068 122.573 110.393 124.23C110.014 124.605 109.66 125.005 109.325 125.422C109.649 125.463 109.97 125.526 110.287 125.626C110.662 125.744 110.501 126.335 110.124 126.216C109.717 126.088 109.305 126.025 108.889 125.993C107.751 127.549 106.864 129.314 106.097 131.05C104.626 134.38 103.668 137.926 103.227 141.536C103.469 141.391 103.715 141.253 103.968 141.124C104.319 140.946 104.628 141.474 104.277 141.653C103.887 141.851 103.508 142.07 103.141 142.307C102.981 143.887 102.919 145.477 102.956 147.065C103.046 150.851 103.557 154.747 104.713 158.359C105.28 160.132 106.032 161.89 107.152 163.388C107.658 164.066 108.234 164.678 108.912 165.189C109.24 165.436 109.588 165.658 109.954 165.844C110.426 166.086 111.042 166.166 111.449 166.508C111.583 166.62 111.686 166.768 111.764 166.936C111.719 167.254 111.714 167.573 111.801 167.892C111.828 167.991 111.903 168.072 111.996 168.111C111.998 168.139 111.998 168.165 111.998 168.191C111.998 168.204 112.016 168.207 112.018 168.195C112.022 168.171 112.026 168.147 112.03 168.123C112.06 168.133 112.091 168.137 112.123 168.137C113.286 168.142 114.449 168.113 115.614 168.074C115.524 167.798 115.426 167.525 115.332 167.249C115.205 166.875 115.797 166.716 115.923 167.087C116.032 167.409 116.147 167.728 116.249 168.052C117.496 168.005 118.743 167.95 119.987 167.908C122.635 167.82 125.281 167.791 127.929 167.736C132.041 167.648 136.183 167.47 140.301 167.644C140.444 167.342 140.603 167.047 140.754 166.749C140.933 166.397 141.461 166.707 141.283 167.058C141.178 167.265 141.069 167.47 140.966 167.676C141.8 167.72 142.633 167.777 143.464 167.855C144.883 167.988 146.289 168.224 147.706 168.371C149.147 168.521 150.557 168.494 151.986 168.257C152.243 168.214 152.395 168.058 152.458 167.866C152.46 167.865 152.461 167.863 152.463 167.861C152.536 167.775 152.605 167.704 152.676 167.642C152.761 167.587 152.853 167.54 152.961 167.499C153.163 167.423 153.372 167.376 153.585 167.345C153.819 167.309 154.056 167.306 154.291 167.277C154.488 167.252 154.681 167.214 154.874 167.169C155.22 167.086 155.549 166.978 155.877 166.835C156.163 166.71 156.42 166.531 156.664 166.336C157.167 165.968 157.604 165.499 157.985 165.01C158.207 164.725 158.416 164.429 158.605 164.121C158.936 163.587 159.218 163.032 159.502 162.473C159.606 162.307 159.7 162.137 159.786 161.964C159.23 161.8 158.668 161.666 158.078 161.657C157.684 161.651 157.684 161.039 158.078 161.045C158.755 161.056 159.394 161.214 160.03 161.402C160.061 161.32 160.091 161.237 160.118 161.153C160.194 160.978 160.257 160.798 160.309 160.616C160.339 160.533 160.37 160.451 160.401 160.368C160.47 160.082 160.539 159.795 160.608 159.508C160.747 159.049 160.856 158.583 160.936 158.111C161.004 157.8 161.056 157.488 161.091 157.171C161.198 156.403 161.285 155.638 161.292 154.862C161.282 154.384 161.252 153.906 161.2 153.431C161.178 153.108 161.14 152.787 161.09 152.468C161.024 151.994 160.959 151.524 160.849 151.056C160.767 150.739 160.685 150.422 160.604 150.106C160.399 149.445 160.158 148.798 159.88 148.165C159.865 148.126 159.788 148.038 159.741 148.038C159.706 148.037 159.657 148.069 159.673 148.112C159.674 148.116 159.676 148.12 159.678 148.124C159.661 148.088 159.646 148.051 159.63 148.015C159.616 147.982 159.563 147.914 159.521 147.915C159.519 147.915 159.517 147.915 159.514 147.916C159.524 147.908 159.534 147.898 159.544 147.887C159.819 147.562 159.997 147.134 160.194 146.758C160.357 146.447 160.511 146.12 160.555 145.768C160.594 145.46 160.542 145.156 160.348 144.907C160.128 144.623 159.713 144.49 159.943 144.08C160.205 143.613 160.59 143.209 160.206 142.678C160.011 142.408 159.702 142.26 159.472 142.025C159.208 141.753 159.083 141.39 159.09 141.019C159.106 141.028 159.127 141.024 159.135 141.001C159.357 140.33 159.196 139.595 158.969 138.942C158.845 138.588 158.582 138.49 158.277 138.473C159.599 135.891 160.837 133.267 161.94 130.584C161.977 130.496 162.012 130.408 162.048 130.32C162.102 130.188 161.989 130.013 161.858 129.984C160.904 129.775 159.911 129.708 158.94 129.617Z" fill="black"/>
<path fill-rule="evenodd" clip-rule="evenodd" d="M146.982 92.2404C146.687 90.4533 147.657 90.0825 146.982 88.3837C145.484 85.236 141.4 85.3716 138.403 85.1296C135.06 85.0015 131.677 85.4426 128.595 86.782C127.859 87.1018 127.151 87.478 126.472 87.9054C125.886 88.2751 125.966 88.9778 126.336 89.3612C123.668 93.1384 125.194 98.2086 123.065 102.185C122.672 102.895 122.152 103.533 121.81 104.272C121.29 105.396 121.257 107.007 122.435 107.753C124.095 108.644 125.021 106.881 125.837 109.437C129.91 118.349 138.098 118.851 145.872 114.204C146.544 113.83 147.231 113.408 147.739 112.82C148.891 111.523 148.756 109.699 148.781 108.08C148.795 107.131 148.798 106.182 148.789 105.232C148.752 101.387 147.477 96.0537 146.982 92.2404Z" fill="white"/>
<path fill-rule="evenodd" clip-rule="evenodd" d="M130.425 81.5515C135.119 79.4232 140.442 78.616 145.562 79.1454C148.089 79.4063 150.583 79.9661 152.956 80.8753L153.164 80.9557C153.75 81.1811 154.382 81.4048 154.827 81.8637C155.345 82.3969 155.49 83.2033 155.12 83.862C154.832 84.3738 154.315 84.741 153.763 84.9369C153.958 85.096 154.142 85.2735 154.315 85.4717C154.607 85.8037 154.629 86.2772 154.315 86.6047C153.71 87.2359 152.926 87.6925 152.081 87.9114C152.176 88.3697 152.125 88.8769 151.921 89.3337C151.337 90.6447 149.691 90.801 148.425 90.7231L148.387 90.7207L148.316 91.5263C148.279 91.9555 148.022 92.2883 147.586 92.3541C147.57 92.3564 147.555 92.3579 147.54 92.3594C148.23 94.8551 148.647 97.4279 149.032 99.9855C149.233 101.321 149.413 102.659 149.586 103.998L149.643 104.444C149.826 105.888 150.056 107.346 150.136 108.8C150.207 110.12 149.955 111.38 149.141 112.445C148.411 113.4 147.416 114.115 146.345 114.646C143.926 115.847 141.38 116.74 138.704 117.155L138.526 117.182C137.493 117.34 136.429 117.473 135.407 117.187C134.51 116.936 133.568 116.289 133.771 115.249C133.839 114.898 134.331 114.883 134.499 115.154L134.538 115.216C134.74 115.537 134.961 115.834 135.313 116C135.726 116.194 136.204 116.248 136.655 116.254C137.914 116.268 139.225 115.955 140.437 115.64C142.701 115.053 145.026 114.095 146.88 112.643C147.669 112.027 148.303 111.256 148.526 110.263C148.802 109.04 148.548 107.703 148.423 106.473C148.165 103.936 147.857 101.404 147.533 98.8748L147.468 98.369C147.195 96.2543 146.908 94.139 146.771 92.0121C146.715 91.9349 146.676 91.8469 146.661 91.7505L146.64 91.612C146.621 91.4934 146.618 91.3848 146.631 91.2846C146.632 90.9005 146.643 90.5187 146.665 90.1346C146.669 90.0658 146.672 89.997 146.674 89.9289C146.275 90.0169 145.872 90.088 145.468 90.1484C142.627 90.5761 139.742 90.6832 136.878 90.4705C135.449 90.3641 134.031 90.1813 132.618 89.9526C131.898 89.8363 131.181 89.7078 130.467 89.5639C129.95 89.4607 129.444 89.3207 128.936 89.1891C128.412 89.9518 128.129 90.8906 128.184 91.8124C128.246 92.8644 128.947 93.8184 128.75 94.8933C128.565 95.8993 127.703 96.2112 126.852 96.4603L126.49 96.5649C126.212 96.6462 126.009 96.7246 125.959 97.0592C125.872 97.6337 125.979 98.2802 126.001 98.8578C126.028 99.541 126.063 100.224 126.079 100.907C126.087 101.261 126.101 101.616 126.1 101.969C126.1 102.22 126.062 102.392 125.965 102.554C126.04 102.648 126.107 102.75 126.167 102.858C126.186 102.893 126.139 102.93 126.11 102.901C126.035 102.822 125.954 102.751 125.869 102.688C125.826 102.74 125.777 102.794 125.718 102.851L125.714 102.845C125.532 103.027 125.243 103.044 125.017 102.851L124.957 102.8C124.792 102.655 124.679 102.535 124.633 102.295C124.63 102.283 124.628 102.271 124.626 102.258C124.206 102.244 123.779 102.343 123.401 102.552C122.802 102.884 122.38 103.356 122.131 103.939C122.23 104.055 122.347 104.159 122.482 104.246C122.501 104.259 122.484 104.287 122.464 104.277C122.325 104.212 122.201 104.132 122.09 104.038C122.001 104.268 121.938 104.514 121.9 104.775C121.765 105.696 122.005 106.821 122.838 107.346C123.198 107.573 123.61 107.697 124.037 107.698C124.245 107.699 124.425 107.664 124.627 107.614C124.764 107.58 124.9 107.531 125.044 107.531C125.166 107.531 125.279 107.562 125.384 107.623L125.355 107.626C125.284 107.632 125.298 107.635 125.396 107.635C125.703 107.648 125.878 107.959 125.737 108.229L125.718 108.271C125.715 108.279 125.711 108.286 125.709 108.292L125.698 108.363C125.696 108.37 125.695 108.377 125.694 108.384L125.69 108.399C125.689 108.401 125.688 108.403 125.687 108.406L126.146 109.106C126.709 109.962 127.285 110.815 127.939 111.597C128.399 112.145 128.885 112.683 129.4 113.181C129.862 113.629 130.416 113.844 130.939 114.196C131.219 114.383 131.301 114.774 131.047 115.026C130.301 115.766 129.246 115.178 128.634 114.577C128.056 114.007 127.556 113.321 127.125 112.635C126.361 111.415 125.752 110.117 125.486 108.709C125.375 108.81 125.233 108.874 125.09 108.924C124.803 109.023 124.487 109.064 124.184 109.075C123.603 109.094 123.022 108.953 122.499 108.704C120.372 107.69 120.06 104.655 121.36 102.864C121.185 102.356 121.087 101.805 120.981 101.334L120.932 101.124C120.394 98.776 120.033 96.3037 120.987 94.0028C121.109 93.706 121.247 93.4168 121.41 93.1398C121.541 92.9172 121.766 92.68 121.828 92.4268C121.966 91.8706 121.115 91.2861 120.867 90.8446C120.576 90.3267 120.534 89.7154 120.932 89.2418C120.982 89.1822 121.037 89.127 121.097 89.0789C120.72 88.3965 120.703 87.5381 121.199 86.8648C121.525 86.4211 122.022 86.1105 122.566 86.0164C122.898 85.959 123.297 85.9804 123.662 86.083C125.661 84.2277 127.942 82.6777 130.425 81.5515ZM122.749 104.766C123.283 104.295 123.872 104.049 124.599 104.111C125.33 104.173 126.21 104.476 126.639 105.102C126.978 105.597 126.287 106.323 125.79 105.951C125.337 105.613 125.034 105.23 124.472 105.048C123.967 104.885 123.342 104.78 122.813 104.873C122.755 104.883 122.696 104.811 122.749 104.766Z" fill="black"/>
<path fill-rule="evenodd" clip-rule="evenodd" d="M143.563 109.499C143.616 109.485 143.663 109.556 143.619 109.595C143.439 109.755 143.324 110.053 143.193 110.256C143.068 110.449 142.947 110.64 142.837 110.842C142.714 111.068 142.595 111.294 142.499 111.534L142.48 111.582C142.509 111.651 142.531 111.718 142.548 111.762L142.552 111.775C142.716 112.193 142.372 112.658 141.984 112.775C141.32 112.975 140.751 112.43 140.735 111.782C140.723 111.273 141.068 110.818 141.42 110.481C141.727 110.186 142.071 109.936 142.456 109.752C142.626 109.671 142.802 109.603 142.986 109.564C143.175 109.523 143.378 109.549 143.563 109.499ZM142.312 111.347C142.361 111.37 142.402 111.426 142.437 111.491C142.42 111.436 142.384 111.38 142.312 111.347ZM142.727 104.263C143.305 104.614 144.186 105.433 143.564 106.303C142.832 107.071 141.779 106.191 141.259 105.793C140.778 105.484 140.237 106.278 140.684 106.638C144.435 109.415 145.958 104.355 143.019 103.85C142.696 103.794 142.576 104.154 142.727 104.263ZM137.977 100.891L138.079 100.882C138.522 100.843 138.97 100.784 139.407 100.884C139.994 101.019 139.951 101.872 139.407 102.029C138.928 102.167 138.397 102.107 137.902 102.112C137.824 102.113 137.746 102.115 137.669 102.116C137.653 102.301 137.593 102.46 137.5 102.62C137.433 102.734 137.348 102.843 137.265 102.944C137.066 103.185 136.597 103.18 136.397 102.944C136.249 102.769 136.13 102.569 136.129 102.332C136.128 102.272 136.135 102.208 136.15 102.144L135.88 102.149C135.219 102.159 134.553 102.155 133.904 102.05C133.673 102.097 133.485 101.681 133.803 101.556C134.669 101.218 135.637 101.118 136.556 101.017C137.028 100.964 137.503 100.928 137.977 100.891ZM145.355 100.541L145.379 100.539C145.952 100.48 146.584 100.378 147.158 100.437C148.015 100.524 148.014 101.683 147.158 101.769C146.844 101.801 146.513 101.786 146.182 101.755C146.351 102.113 146.151 102.541 145.744 102.595C145.366 102.646 144.975 102.279 145.099 101.885L145.105 101.868C145.129 101.799 145.151 101.723 145.176 101.648L145.04 101.636C144.631 101.6 144.064 101.526 143.913 101.204C143.868 101.106 143.878 101.016 143.948 100.933C144.235 100.592 144.941 100.581 145.355 100.541ZM139.261 97.8878C139.675 97.7372 140.106 98.0897 140.16 98.487C140.222 98.9449 139.892 99.2463 139.473 99.301L139.452 99.3035C138.528 99.4052 137.611 99.5913 136.685 99.6965C136.265 99.7442 135.842 99.7756 135.419 99.7869L135.116 99.7937C134.746 99.8031 134.348 99.8115 134.006 99.684L134.007 99.6817C133.917 99.6553 133.875 99.5244 133.976 99.4528C134.34 99.1953 134.831 99.098 135.255 98.9757C135.681 98.8526 136.111 98.7391 136.541 98.6325C137.445 98.409 138.385 98.2059 139.261 97.8878ZM143.086 97.9949C143.196 97.4156 144.017 97.3535 144.318 97.775C144.513 97.8418 144.799 97.9116 144.976 97.9641C145.284 98.0555 145.593 98.1464 145.902 98.2345C146.543 98.4169 147.168 98.6481 147.798 98.8636C147.862 98.8858 147.845 98.9682 147.782 98.9763C146.903 99.0907 146.039 99.1439 145.155 99.1073L144.973 99.0991C144.194 99.0687 142.871 99.1266 143.086 97.9949Z" fill="black"/>
<path fill-rule="evenodd" clip-rule="evenodd" d="M142.811 107.244C141.96 106.861 140.432 107.195 139.877 107.328C138.587 107.637 137.289 108.305 136.888 109.352C136.437 110.532 137.338 110.904 137.471 110.843C138.364 110.906 139.427 110.345 140.363 110.2C141.123 110.081 141.924 109.978 142.636 109.574C143.155 109.86 144.329 110.015 145.276 110.265C146.083 110.477 146.432 110.938 147.18 110.84C148.077 110.723 147.71 108.838 146.711 108.075C145.617 107.239 143.768 106.901 142.811 107.244ZM144.496 115.302C143.752 115.483 143.702 113.852 143.618 113.275C143.553 112.825 143.186 111.664 142.254 111.714C141.322 111.764 140.972 112.737 141.019 113.342C141.05 113.734 141.411 115.722 140.257 115.974C139.521 115.971 138.669 115.921 137.895 115.779C136.984 115.573 135.799 114.85 135.486 116.273C135.374 116.784 139.387 118.305 141.168 118.443C142.974 118.808 145.087 118.246 146.373 116.865C146.665 116.551 147.489 115.246 147.548 114.927C147.671 114.256 147.385 113.824 146.554 114.06C145.967 114.374 144.975 115.185 144.496 115.302Z" fill="black"/>
<path d="M2.07837 138.753V167.087H84.6288L101.54 96.043L2.07837 138.753Z" fill="white" stroke="black" stroke-width="4"/>
<mask id="mask0_7_2488" style="mask-type:luminance" maskUnits="userSpaceOnUse" x="0" y="92" width="105" height="78">
<path d="M2.07837 138.753V167.087H84.6288L101.54 96.043L2.07837 138.753Z" fill="white" stroke="white" stroke-width="4"/>
</mask>
<g mask="url(#mask0_7_2488)">
<path fill-rule="evenodd" clip-rule="evenodd" d="M104.922 254.248C103.597 250.176 105.175 245.472 104.144 241.082C103.79 239.346 103.118 232.894 102.443 229.122C102.066 227.012 104.324 226.357 104.671 225.514C107.113 217.948 89.2964 200.149 88.2087 199.493C86.579 198.552 85.1369 197.741 83.5444 196.779C78.8991 195.147 73.3286 190.607 69.1172 193.523C61.8204 182.661 64.7071 169.279 60.7477 167.688C56.7883 166.098 45.096 162.883 38.4113 166.988C34.4046 169.952 34.6999 175.056 32.8718 179.265C31.7987 181.246 31.2715 184.116 30.0223 185.408C25.7779 189.798 20.485 190.555 14.5678 191.3C14.1171 191.357 13.6429 190.131 13.205 190.283C3.22363 193.733 -8.39065 194.739 -19.6945 214.056C-21.291 216.819 -25.5976 221.251 -24.1576 224.444C-33.6458 246.507 -42.9818 296.167 -16.9471 308.552C-16.1149 309.084 -10.4693 306.23 -9.54944 306.256C-8.01603 306.3 -10.9541 310.023 -9.54944 309.36C0.763512 310.143 57.5103 308.124 79.2621 310.143C94.2201 310.031 103.694 312.653 107.148 310.031C105.767 306.694 105.831 303.12 106.268 299.592C109.447 297.227 105.517 280.556 105.85 275.675C108.825 272.108 106.456 258.729 104.922 254.248Z" fill="white"/>
<path fill-rule="evenodd" clip-rule="evenodd" d="M78.1286 115.846C66.2095 107.956 42.3308 108.813 29.2101 113.647C16.4077 117.707 11.9254 129.02 9.79975 141.243C7.216 154.98 7.56328 174.782 26.1429 174.543C28.755 175.806 31.6487 176.354 34.3514 177.4C38.0505 178.679 41.6775 180.163 45.4311 181.283C52.8241 183.664 61.0509 183.457 68.064 179.973C71.9386 178.102 73.5423 175.187 76.0762 172.081C83.4478 163.045 87.1571 150.114 86.8249 138.625C86.242 130.535 84.9038 121.169 78.1286 115.846Z" fill="white"/>
<path fill-rule="evenodd" clip-rule="evenodd" d="M93.2115 149.148C91.9885 141.557 91.6495 133.836 90.0479 126.304C88.5415 119.216 85.7248 112.518 80.8031 107.115C76.3988 102.28 70.704 98.73 64.591 96.4803C52.6822 92.0977 38.9855 93.0888 27.4652 98.205C16.6822 102.992 8.08162 111.848 3.06873 122.476C-0.187958 129.382 -1.82522 136.724 -2.55268 144.302C-3.35941 152.72 -3.44663 161.226 -3.77567 169.674C-3.81531 170.716 -3.87279 171.759 -3.88667 172.802C-3.90253 173.943 -3.44068 174.944 -3.06407 176.007C-3.0383 176.082 -3.00064 176.153 -2.95505 176.221C-3.2385 176.256 -3.52195 176.298 -3.8054 176.343C-4.12255 176.393 -4.10867 176.908 -3.8054 176.97C-1.2385 177.493 1.39975 177.566 4.01026 177.695C6.71591 177.83 9.42552 177.904 12.1351 177.995C14.7774 178.084 17.4196 178.173 20.0618 178.262C21.4493 178.31 22.8368 178.357 24.2243 178.403C24.8844 178.425 25.5445 178.449 26.2065 178.47C26.5355 178.482 26.8666 178.492 27.1956 178.504C27.4632 178.512 27.8993 178.682 27.927 178.486C27.9766 178.516 28.0301 178.542 28.0876 178.56C28.151 178.593 28.2124 178.633 28.2719 178.676C28.595 178.899 29.0846 178.871 29.4116 178.676C29.4414 178.659 29.4731 178.639 29.5048 178.619C29.7486 178.474 29.9191 178.264 30.0142 178.026C31.37 179.664 33.7704 177.824 32.3829 176.092C31.6376 175.16 24.2243 152.32 27.2927 134.92L39.598 133.291C41.8477 133.063 46.034 132.609 46.034 132.609C46.034 132.609 47.0588 129.265 47.3522 128.189C47.374 128.11 47.3958 128.028 47.4196 127.949C47.7129 128.467 48.0083 128.982 48.3056 129.497L49.8239 132.583C49.8239 132.583 72.2342 132.209 77.7288 132.244C77.822 132.244 78.264 138.924 78.0638 141.866C77.6594 147.773 77.2293 153.676 76.6307 159.566C76.2486 163.339 75.3277 167.038 73.9559 170.515C71.7888 176.007 65.497 181.227 59.3621 181.227C55.5433 181.227 46.9141 178.134 45.6574 177.509C44.4007 176.885 43.6519 178.589 44.7972 179.271C47.1171 180.652 53.5118 183.582 59.3621 183.582C67.8582 183.582 74.2719 175.521 75.0588 174.365C82.7952 173.941 90.708 174.137 98.4344 174.904C99.0826 174.968 99.6416 174.187 99.4335 173.59C96.6584 165.648 94.5474 157.456 93.2115 149.148Z" fill="black"/>
<path fill-rule="evenodd" clip-rule="evenodd" d="M50.1306 163.339C52.5579 160.519 56.6461 160.322 60.0326 161.028C62.2059 161.48 64.3218 162.234 66.5292 162.514C67.5601 162.644 68.6021 162.683 69.6406 162.664C70.6606 162.645 71.6822 162.44 72.6987 162.478C72.8548 162.484 72.9139 162.689 72.7785 162.772C71.3841 163.629 69.5056 163.904 67.8584 164.071C67.8636 164.193 67.8709 164.312 67.8877 164.413C67.9327 164.682 67.9738 164.949 68.0069 165.22C68.0816 165.831 68.1653 166.439 68.2487 167.049C68.4132 168.248 68.4649 169.486 68.7542 170.665L68.8047 170.86C68.8717 171.108 68.887 171.332 68.8646 171.533L68.9316 171.503L69.1432 171.4L69.2819 171.335C69.7881 171.1 70.2712 170.929 70.8663 170.986C71.3195 171.029 71.6998 171.338 71.7026 171.822C71.7139 173.994 68.7875 174.692 67.1135 175.108L66.6226 175.229C64.4919 175.748 62.3164 176.204 60.125 176.313C56.6083 176.487 52.6564 175.517 50.3559 172.665C48.2095 170.003 47.816 166.029 50.1306 163.339ZM66.101 172.463C65.732 169.194 61.7145 169.014 60.5587 171.087C60.0459 168.197 52.459 170.837 53.0523 171.412C55.3008 173.589 58.7131 173.785 61.6465 173.383C63.1405 173.177 64.6356 172.843 66.101 172.463ZM61.6423 163.894L60.6323 163.749L60.2345 163.694C57.7305 163.359 54.9145 163.185 52.8558 164.791C52.1042 165.377 51.6812 166.141 51.5232 166.962C53.4712 166.673 55.4264 166.453 57.3873 166.27L57.9222 166.22C59.1492 166.11 60.3756 165.993 61.6013 165.871L62.4725 165.783L63.3433 165.692C63.6497 165.66 65.7149 165.555 66.1032 165.626C66.1446 165.277 66.1988 164.522 66.2864 164.182C64.8192 164.232 63.3583 164.123 61.8997 163.929L61.6423 163.894ZM66.2918 149.281C67.7886 150.191 70.0693 152.313 68.4591 154.568C66.5637 156.557 63.8348 154.277 62.49 153.246C61.2431 152.446 59.8421 154.502 60.999 155.435C70.7163 162.629 74.6597 149.519 67.0489 148.212C66.2109 148.068 65.8996 149 66.2918 149.281ZM68.9704 153.114L69.0424 153.075L69.0667 153.06C69.1088 153.033 69.082 153.036 68.9863 153.069L68.9145 153.095V153.146C68.933 153.134 68.9526 153.126 68.9704 153.114ZM49.8008 145.031L49.8006 144.986C49.8033 143.722 50.5395 140.836 52.3592 140.836C53.4959 140.836 54.1861 142.8 54.3056 144.825L54.3097 144.908C54.3625 146.167 54.017 148.918 52.3592 148.918C50.6837 148.918 49.818 146.312 49.8008 145.031ZM76.5908 144.635L76.591 144.59C76.5882 143.326 75.8521 140.44 74.0324 140.44C72.9241 140.44 72.2403 142.307 72.0961 144.277L72.086 144.429C72.0142 145.645 72.3373 148.522 74.0324 148.522C75.7078 148.522 76.5735 145.916 76.5908 144.635ZM50.839 132.218C52.3241 131.993 54.2906 132.422 54.9829 133.932C55.2914 134.604 54.926 135.348 54.1484 135.386C52.2692 135.476 50.5837 135.057 48.9342 136.279C48.2243 136.805 47.6274 137.534 47.1266 138.26L46.9371 138.536L46.7801 138.764C46.44 139.264 46.118 139.807 46.1683 140.411C46.1831 140.589 46.0006 140.759 45.8271 140.752C44.7461 140.707 44.6297 139.352 44.7718 138.538C45.0363 137.027 45.7675 135.609 46.781 134.466C47.8454 133.267 49.2505 132.46 50.839 132.218ZM71.2928 134.052C72.3168 133.394 73.6266 133.141 74.8262 133.238C77.1915 133.428 81.1596 135.439 80.6373 138.328C80.4761 139.219 79.2369 139.689 78.5067 139.195C77.7215 138.663 77.5304 137.837 76.9461 137.143C76.4799 136.588 75.889 136.187 75.2563 135.845C74.6327 135.507 73.9112 135.303 73.2035 135.229L73.0856 135.217C72.6597 135.181 70.5086 135.191 70.8244 135.994C70.8862 136.151 70.6523 136.275 70.5449 136.157C69.8854 135.427 70.6323 134.477 71.2928 134.052Z" fill="black"/>
</g>
<path d="M124.178 82.1955L167.208 63.9132V2H78.3423L124.178 82.1955Z" fill="white" stroke="black" stroke-width="4"/>
<mask id="mask1_7_2488" style="mask-type:luminance" maskUnits="userSpaceOnUse" x="74" y="0" width="96" height="85">
<path d="M124.178 82.1955L167.208 63.9132V2H78.3423L124.178 82.1955Z" fill="white" stroke="white" stroke-width="4"/>
</mask>
<g mask="url(#mask1_7_2488)">
<path fill-rule="evenodd" clip-rule="evenodd" d="M125.125 10.0741C126.585 4.41379 127.927 2.01389 130.52 0.046545C132.945 -1.79363 136.486 -3.33916 141.651 -4.46813C147.032 -5.40868 147.185 -8.20461 148.534 -12.6983C148.927 -14.0493 150.878 -14.4088 151.719 -13.435C151.838 -13.5631 151.962 -13.6804 152.09 -13.7864C151.975 -14.4306 152.913 -16.2773 152.882 -16.8936C152.555 -23.3263 154.659 -26.5566 159.912 -27.7574C161.054 -28.0187 168.813 -28.1725 169.927 -27.8646C174.796 -26.5186 179.589 -22.2452 178.856 -17.0972C180.384 -15.1001 181.88 -13.8812 184.238 -13.2378C189.486 -12.5716 194.733 -11.9792 199.982 -11.4721C210.257 -9.86094 219.891 -4.42334 226.475 3.50697C227.082 4.239 227.258 5.23263 226.722 6.01327C227.142 7.81126 229.505 12.1726 227.646 13.4053C230.704 20.7177 237.74 34.8517 237.753 38.8897C237.808 55.8531 235.976 77.9331 219.233 87.3205C218.563 87.9794 218.467 88.7084 218.177 89.6888C217.441 92.777 214.767 94.9841 211.841 94.804C197.428 95.1242 183.467 93.3661 169.053 93.281C162.697 93.2434 155.052 94.192 149.53 94.824C144.009 95.456 138.434 94.897 133.135 93.281C132.689 93.9843 131.785 94.394 130.869 94.192C125.375 93.1008 120.933 89.7162 117.064 86.0168C115.881 83.8664 111.264 77.7392 113.099 75.6064C111.435 68.5742 111.522 61.0181 114.478 54.3218C114.059 53.0943 114.823 51.7454 114.478 50.4778C114.229 49.5605 113.59 49.1811 113.268 48.2728C112.816 46.9946 113.308 45.2799 113.817 43.9755C114.026 43.3255 113.433 42.6258 113.268 41.9624C112.486 38.8337 114.277 39.1095 115.568 37.0179C115.548 37.0114 115.213 35.5182 115.214 35.5257C115.017 34.4597 115.512 33.0939 115.944 32.2041C116.235 31.6026 116.861 31.2262 117.482 31.2952C116.856 29.1716 116.065 27.4045 115.214 25.3586C113.709 21.7521 111.805 18.2986 109.644 15.0343C108.759 13.6976 109.947 12.1489 111.379 12.0578C116.014 11.7634 120.599 11.0962 125.125 10.0741Z" fill="white"/>
<path fill-rule="evenodd" clip-rule="evenodd" d="M138.652 37.347C140.506 36.6202 142.502 36.2184 144.508 36.0625C143.428 35.8733 142.345 35.6908 141.253 35.597C140.491 35.5317 139.784 35.5384 139.212 36.1163C138.83 36.5013 138.65 36.997 138.399 37.4525C138.481 37.4156 138.567 37.3805 138.652 37.347ZM118.754 30.5513C121.79 30.7055 124.83 31.4273 127.576 32.735C128.7 33.2709 129.718 34.0446 130.016 35.3173C130.167 35.9673 130.13 36.6388 130.05 37.2952C129.989 37.7924 129.974 38.4271 129.542 38.7637C129.468 38.8207 129.39 38.8642 129.308 38.896C130.321 39.3532 131.286 39.9026 132.143 40.4685C132.927 40.986 133.732 41.7831 134.094 42.6824C134.124 42.5802 134.154 42.4849 134.184 42.3943C134.8 40.5725 135.75 39.0804 137.245 38.0771C136.981 37.9584 136.798 37.6769 136.884 37.2885C137.239 35.6656 138.738 34.2556 140.431 34.3561C142.284 34.4649 144.276 35.1398 145.952 35.9922C146.563 35.9788 147.173 35.9872 147.776 36.014C147.879 36.0173 147.874 36.1582 147.776 36.1697C147.287 36.2318 146.798 36.3003 146.309 36.3807C145.146 36.5668 143.987 36.8027 142.854 37.0958C141.494 37.4476 140.087 37.8008 138.816 38.4154C136.351 39.6096 134.826 42.7311 135.139 45.4472C135.191 45.8927 135.363 47.2391 135.981 47.1001C136.504 46.9828 136.711 45.8927 136.894 45.4891C137.383 44.4173 138.264 43.7173 139.32 43.2434C140.561 42.6857 141.889 42.3089 143.175 41.8703C143.904 41.6208 144.632 41.3711 145.362 41.1233C146.109 40.8672 146.819 40.5137 147.615 40.6929C148.095 40.8018 148.151 41.3745 147.881 41.7029C147.471 42.2034 146.861 42.3508 146.27 42.5568C145.49 42.8281 144.711 43.0995 143.932 43.3707C142.728 43.7893 141.467 44.1427 140.293 44.6551L140.33 44.7388C140.426 44.712 140.538 44.8075 140.519 44.9247C140.343 46.0082 140.099 47.2608 140.37 48.3462C140.585 49.2068 141.34 50.1598 142.321 49.9068C142.167 49.7661 142.11 49.5233 142.214 49.2989C142.603 48.4682 147.693 45.1893 148.147 46.4069C148.162 46.4503 148.116 46.4821 148.079 46.4756C147.692 46.3951 147.044 47.0549 146.734 47.2642C146.287 47.5658 145.833 47.8604 145.391 48.1702C144.907 48.5086 144.435 48.8636 143.974 49.2302C143.612 49.5184 143.339 49.818 142.924 49.9639C143.142 50.0675 143.314 50.2601 143.388 50.5063C143.576 51.1477 143.937 51.6919 144.565 51.9751C145.223 52.2697 145.965 52.0838 146.659 52.156C147.603 52.2513 148.427 52.7002 149.115 53.3416C150.56 54.6912 151.286 57.0693 153.307 57.7072C154.514 58.0875 155.854 57.8479 157.076 57.6754C158.441 57.4828 159.771 57.3304 161.146 57.5314C162.462 57.7241 163.706 58.1795 164.909 58.7354C166.036 59.2562 167.282 59.8459 168.281 60.6228C168.487 59.9881 168.695 59.3601 168.853 58.712C169.224 57.1799 169.425 55.6189 169.474 54.0448C169.519 52.5462 169.435 51.0407 169.306 49.5484C169.243 48.8032 169.142 48.0613 169.079 47.3161C169.062 47.1285 169.028 46.9276 169.003 46.7268C167.218 45.6733 165.343 44.8663 163.452 44.0357C163.447 44.034 163.442 44.0305 163.437 44.029C163.378 44.002 163.321 43.977 163.263 43.9519C163.264 43.9484 163.266 43.9452 163.269 43.9417C163.053 43.8096 162.903 43.6336 162.812 43.436C160.087 41.629 157.81 39.1625 156.112 36.2853C155.4 35.0795 154.715 33.8286 153.784 32.772C152.793 31.6448 151.615 30.975 150.159 30.6267C148.455 30.2182 146.7 29.9736 144.955 29.8346C144.003 29.7594 142.938 29.642 141.899 29.6472C141.176 29.652 140.468 29.714 139.818 29.8932C138.855 30.1578 138.292 30.8898 137.688 31.6298C137.11 32.34 136.535 33.0517 135.996 33.7919C135.486 34.4934 135.003 35.2185 134.584 35.9788C134.333 36.4343 134.1 36.9034 133.904 37.3872C133.836 37.5582 133.745 37.7522 133.704 37.9298C133.662 38.1089 133.739 38.2983 133.538 38.2983C134.367 38.3099 134.358 39.6345 133.534 39.586C130.309 39.3984 134.929 33.102 135.604 32.2243C136.561 30.9817 137.547 29.3606 139.077 28.7829C139.099 28.7745 139.123 28.7663 139.144 28.7594C138.699 28.3374 138.347 27.8319 138.011 27.3176C137.664 26.7884 137.251 26.1822 137.137 25.5542C137.065 25.1541 137.562 24.9262 137.798 25.2762C138.141 25.787 138.307 26.4334 138.563 26.9945C138.825 27.5638 139.143 28.1013 139.394 28.6757C139.998 28.4898 140.652 28.4046 141.316 28.3761C140.477 27.2407 139.044 25.0501 138.871 24.7688C138.078 23.4659 137.322 22.123 136.601 20.7781C135.82 19.3212 135.152 17.804 134.405 16.3303C133.982 15.4948 133.554 14.6523 133.084 13.8418C132.921 13.5638 132.747 13.2858 132.55 13.0329C132.511 12.9829 132.463 12.941 132.417 12.8939C132.366 12.8655 132.312 12.8337 132.282 12.8171C132.011 12.6613 131.915 12.2996 131.724 12.07C131.419 11.7001 131.061 11.6566 130.602 11.6514C129.624 11.6413 128.643 11.6798 127.666 11.7066C126.231 11.7468 124.798 11.8038 123.364 11.8791C122.931 11.9026 122.499 11.926 122.065 11.9528C119.98 12.0769 117.897 12.2392 115.818 12.4386C113.98 12.6143 112.141 12.9008 110.3 13.0381C112.792 18.958 115.556 24.7706 118.684 30.3807C118.716 30.4374 118.739 30.4944 118.754 30.5513ZM132.58 45.8022C132.982 45.9866 133.372 46.2159 133.735 46.4773C133.675 46.0703 133.66 45.6415 133.677 45.2111C133.377 45.5326 132.993 45.7168 132.58 45.8022ZM115.423 35.6189C115.452 35.6221 115.478 35.6372 115.492 35.6657C116.048 36.8128 115.815 38.0939 114.907 38.9932C114.432 39.4621 113.395 39.9912 113.429 40.7616C113.457 41.3845 114.135 41.907 114.425 42.4211C114.695 42.9001 114.795 43.4259 114.579 43.9452C114.303 44.6099 113.531 44.8745 113.266 45.5278C112.931 46.3565 113.476 47.3565 113.857 48.0781C114.212 48.7462 114.671 49.4144 114.976 50.1211C117.017 51.178 118.844 52.799 120.415 54.4452C122.135 56.2454 123.611 58.3637 126.342 58.3103C126.615 58.3051 126.822 58.4492 126.946 58.6484C127.707 58.6835 128.469 58.6986 129.229 58.7021C130.565 58.7087 131.902 58.6953 133.236 58.6534C133.33 58.3302 133.261 57.8916 133.267 57.6185C133.283 56.7393 133.292 55.8618 133.328 54.9826C133.338 54.7383 133.349 54.4919 133.359 54.2474C132.878 55.1166 131.94 55.5118 130.872 55.4515C129.154 55.3512 127.425 55.0697 125.724 54.8168C124.828 54.6845 123.934 54.5338 123.041 54.373C122.308 54.2424 121.273 54.2761 120.76 53.6881C120.64 53.5509 120.633 53.2997 120.822 53.2075C121.33 52.958 121.65 53.0969 122.207 53.2043C122.887 53.3364 123.569 53.462 124.252 53.5794C125.563 53.807 126.878 54.018 128.196 54.2039C128.946 54.3094 129.698 54.4132 130.45 54.4953C131.106 54.5656 131.846 54.6611 132.376 54.1672C133.442 53.169 132.844 51.496 132.17 50.4879C132.156 50.4679 132.156 50.4493 132.161 50.4326C131.525 50.2836 130.89 50.1094 130.257 49.9871C129.04 49.7527 127.814 49.5553 126.586 49.3794C124.064 49.0192 121.526 48.7814 118.99 48.5421C118.362 48.4817 118.356 47.4938 118.99 47.5524C122.633 47.8856 126.293 48.202 129.887 48.9038C130.788 49.0778 131.682 49.2754 132.571 49.4982C132.992 49.6021 133.442 49.7646 133.883 49.7696C133.91 49.7696 133.936 49.7696 133.963 49.7678C134.826 49.7411 134.951 49.0026 134.477 48.388C134.419 48.3125 134.358 48.2372 134.296 48.1653C133.459 47.1671 132.416 46.5005 131.341 45.8106C130.137 45.6465 128.936 45.2814 127.757 45.0135C124.846 44.3503 121.936 43.6872 119.024 43.0257C118.453 42.8951 118.695 42.0176 119.266 42.1465C121.477 42.6474 123.688 43.1479 125.898 43.6486L129.133 44.3823C129.78 44.5278 130.587 44.8209 131.347 44.9266C131.722 44.9783 132.086 44.985 132.414 44.9081C133.474 44.6569 133.528 43.3321 133.071 42.5451C132.558 41.661 131.59 41.1082 130.731 40.6075C129.242 39.7384 127.658 39.1137 126.111 38.3936C125.836 38.3334 125.561 38.2731 125.287 38.2128C123.689 37.8611 121.864 37.6886 120.36 37.044C119.91 36.853 120.156 36.1429 120.601 36.153C121.768 36.1783 122.989 36.5934 124.13 36.8396C125.364 37.1075 126.6 37.3738 127.834 37.64C127.958 37.6668 128.691 37.9013 128.802 37.8494C128.872 37.8159 128.897 37.5716 128.921 37.4106C128.996 36.8814 129.051 36.3256 128.969 35.7946C128.788 34.6039 127.795 34.0446 126.791 33.5874C124.553 32.5709 122.1 31.9347 119.658 31.68C119.096 31.6214 118.533 31.5847 117.967 31.5661C117.302 31.546 116.755 31.4288 116.418 32.0836C115.889 33.1152 115.597 34.4417 115.423 35.6189ZM118.53 73.0209C119.018 71.3349 118.885 69.5347 119.219 67.815C119.391 66.9278 119.627 66.0476 119.884 65.1815C120.091 64.4818 120.437 63.7376 120.476 63.0074C120.478 62.9587 120.421 62.9306 120.381 62.953C119.694 63.3469 119.165 64.1984 118.773 64.8666C118.304 65.6663 117.945 66.5036 117.656 67.3839C117.079 69.1378 116.606 71.2533 117.35 73.0209C117.571 73.5471 118.348 73.6524 118.53 73.0209ZM133.596 50.6888C133.184 50.6488 132.772 50.5699 132.36 50.4778C132.821 50.9268 133.246 51.4675 133.483 52.0672C133.519 51.6067 133.566 51.1477 133.628 50.6907C133.618 50.6907 133.606 50.6907 133.596 50.6888ZM137.556 85.7843C138.282 85.2774 138.811 84.5687 139.427 83.9433C140.033 83.3282 139.086 82.3808 138.48 82.9961C137.954 83.5294 137.498 84.196 136.879 84.6275C136.582 84.835 136.444 85.2103 136.639 85.544C136.812 85.8386 137.259 85.9915 137.556 85.7843ZM141.607 66.3005C140.281 65.7271 138.976 65.1026 137.589 64.6896C136.759 64.4426 136.408 65.7359 137.232 65.9813C138.511 66.3619 139.709 66.9293 140.931 67.4571C141.715 67.7961 142.396 66.6416 141.607 66.3005ZM155.612 65.8992C155.936 65.0991 154.64 64.7542 154.32 65.5432C153.952 66.4512 153.53 67.3359 153.162 68.2439C152.838 69.044 154.135 69.389 154.454 68.6001C154.822 67.6921 155.244 66.8074 155.612 65.8992ZM169.435 81.8784C169.651 82.1665 170.011 82.3225 170.352 82.1189C170.637 81.9481 170.811 81.4939 170.592 81.2024C169.953 80.3513 169.306 79.5105 168.558 78.7517C167.951 78.1366 167.005 79.0846 167.611 79.699C168.279 80.3766 168.865 81.1183 169.435 81.8784ZM171.412 -7.78011C170.797 -7.36012 170.258 -6.84985 169.733 -6.32485C169.122 -5.71445 170.069 -4.76727 170.68 -5.37768C171.123 -5.82012 171.569 -6.26926 172.088 -6.62328C172.387 -6.82792 172.522 -7.20856 172.328 -7.5398C172.155 -7.83655 171.711 -7.98409 171.412 -7.78011ZM151.301 13.7787C151.648 14.4748 151.961 15.1572 151.981 15.9485C152.002 16.8104 153.342 16.8109 153.321 15.9485C153.295 14.9131 152.913 14.0151 152.458 13.1024C152.072 12.3299 150.917 13.0093 151.301 13.7787ZM143.922 -3.53591C143.202 -4.01603 142.532 -2.85501 143.246 -2.37907C143.824 -1.99341 144.403 -1.6074 144.982 -1.22157C145.702 -0.741615 146.372 -1.90247 145.658 -2.3784C145.08 -2.76424 144.501 -3.15008 143.922 -3.53591ZM175.927 26.737C176.05 27.5884 177.341 27.2241 177.219 26.381C177.03 25.0778 176.8 23.7918 176.447 22.5224C176.216 21.6918 174.924 22.0468 175.155 22.8786C175.509 24.148 175.739 25.434 175.927 26.737ZM180.624 42.0834C181.486 42.0651 181.486 40.7254 180.624 40.7437C179.844 40.7602 179.076 40.9655 178.324 41.1534C177.486 41.3626 177.843 42.6543 178.68 42.4453C179.316 42.2863 179.964 42.0974 180.624 42.0834ZM182.358 72.9972C182.654 73.1413 182.958 73.2711 183.258 73.4081C183.857 73.6823 184.457 73.9567 185.056 74.2319C186.304 74.8049 187.552 75.3798 188.798 75.9567C191.293 77.1117 193.808 78.226 196.309 79.3685C198.86 80.5337 201.404 81.7143 203.944 82.901C205.141 83.4598 206.347 83.9982 207.551 84.5424C208.58 85.0078 209.853 85.821 210.982 85.8976C211.041 85.9016 211.06 85.8281 211.027 85.7904C210.6 85.3049 209.919 85.0226 209.358 84.7071C208.785 84.3845 208.201 84.0812 207.62 83.7736C206.409 83.1317 205.196 82.495 203.973 81.8757C201.526 80.6377 199.075 79.4085 196.623 78.1808C194.122 76.9287 191.625 75.6682 189.102 74.4606C187.915 73.8919 186.726 73.3251 185.536 72.7599C184.892 72.4537 184.247 72.1481 183.603 71.843C183.324 71.7112 183.048 71.569 182.764 71.4511C182.385 71.2945 182.098 71.3265 181.708 71.2301C181.071 71.073 180.796 71.8822 181.284 72.2345C181.687 72.5247 181.898 72.7729 182.358 72.9972ZM191.302 86.7344C191.439 86.4003 191.151 85.994 190.834 85.9103C190.453 85.8101 190.149 86.0412 190.01 86.3782C189.642 87.2716 189.119 88.0913 188.446 88.7836C187.844 89.4022 188.791 90.3499 189.393 89.731C190.237 88.8632 190.843 87.849 191.302 86.7344ZM197.881 65.2302C198.492 64.6196 197.545 63.6724 196.934 64.283L195.198 66.0191C194.587 66.6298 195.535 67.577 196.145 66.9664L197.881 65.2302ZM215.695 62.3995C216.943 62.7656 218.399 63.1022 219.25 64.1671C219.291 64.2192 219.361 64.1524 219.336 64.1005C218.247 61.8417 215.122 61.0495 212.959 60.2582C211.429 59.6984 209.859 59.2342 208.276 58.8195C208.434 57.0134 207.997 55.0777 207.846 53.2805C207.684 51.3617 207.552 49.4379 207.484 47.513C207.415 45.5495 207.398 43.5728 207.463 41.6088C207.527 39.652 207.781 37.7191 207.893 35.7688C207.903 35.5802 207.641 35.5712 207.584 35.7271C206.927 37.5369 206.646 39.5416 206.432 41.4498C206.211 43.4157 206.138 45.3759 206.166 47.3531C206.196 49.3861 206.314 51.4143 206.476 53.4407C206.553 54.4013 206.642 55.3605 206.726 56.3204C206.791 57.0529 206.821 57.7796 206.97 58.4888C206.015 58.2545 205.058 58.0328 204.104 57.8172C201.062 57.1308 198.007 56.4938 194.977 55.7514C193.49 55.3872 192.025 54.9508 190.544 54.5633C189.15 54.1983 187.679 53.7559 186.248 53.5931C185.737 53.5349 185.672 54.2335 186.01 54.4706C187.173 55.2874 188.718 55.8561 190.062 56.3132C191.41 56.7719 192.812 57.102 194.194 57.4418C197.076 58.1507 199.986 58.7303 202.891 59.334C205.792 59.937 208.699 60.5355 211.567 61.2795C212.949 61.6379 214.325 61.9976 215.695 62.3995ZM222.535 26.5585C223.281 26.9964 223.954 25.8381 223.211 25.4016C222.239 24.8309 221.202 24.402 220.157 23.9837C219.356 23.6629 219.011 24.959 219.801 25.2757C220.74 25.6515 221.661 26.0457 222.535 26.5585ZM225.236 76.3312C225.984 76.7649 226.658 75.6067 225.912 75.1745C224.865 74.5675 223.718 74.1624 222.632 73.6312C221.86 73.253 221.182 74.409 221.956 74.788C223.041 75.3192 224.189 75.7241 225.236 76.3312ZM226.451 48.0779C225.728 48.7648 224.762 49.0882 223.852 49.4491C223.059 49.7634 223.407 51.0586 224.209 50.7409C225.342 50.2913 226.497 49.8808 227.398 49.0251C228.025 48.4299 227.076 47.4842 226.451 48.0779ZM218.451 9.70778C217.656 10.0196 218.004 11.3148 218.807 10.9998C219.697 10.6504 220.617 10.3845 221.508 10.0352C222.303 9.72336 221.955 8.42836 221.152 8.74319C220.261 9.09252 219.341 9.35845 218.451 9.70778ZM204.338 -5.53275C203.493 -5.6751 203.134 -4.38395 203.982 -4.24077C205.034 -4.06309 206.07 -3.85527 207.069 -3.4691C207.875 -3.15728 208.22 -4.45311 207.425 -4.76091C206.426 -5.14708 205.39 -5.35507 204.338 -5.53275ZM199.675 31.5743C200.45 31.1935 199.77 30.0387 198.999 30.4177C198.186 30.8171 197.345 31.1259 196.458 31.3146C195.614 31.4945 195.973 32.7858 196.814 32.6066C197.812 32.3939 198.761 32.0237 199.675 31.5743ZM195.271 10.6724C194.437 10.444 194.084 11.7366 194.915 11.9644C196.376 12.3646 197.88 12.5728 199.352 12.9289C200.191 13.1319 200.546 11.8398 199.708 11.6371C198.236 11.2808 196.732 11.0729 195.271 10.6724ZM176.588 4.11316C175.74 4.27007 176.101 5.56105 176.944 5.40514C177.841 5.23918 178.75 5.2365 179.659 5.236C180.523 5.23567 180.521 3.89596 179.659 3.89629C178.626 3.89679 177.606 3.92476 176.588 4.11316ZM115.654 11.1123C117.843 10.903 120.035 10.7355 122.231 10.6099C122.333 10.6047 122.433 10.5982 122.536 10.593C122.547 10.5697 122.562 10.5478 122.577 10.5243C123.294 9.47266 123.822 8.42116 124.279 7.232C124.716 6.09994 125.139 4.93289 125.813 3.91136C126.58 2.74749 127.617 1.83682 128.753 1.04757C129.442 1.51094 130.082 2.05352 130.667 2.62859C131.283 3.23363 132.23 2.28646 131.614 1.68125C131.094 1.17015 130.539 0.698069 129.953 0.271538C130.63 -0.140087 131.321 -0.526928 131.995 -0.911758C134.523 -2.35345 137.11 -3.68663 139.751 -4.9056C140.978 -5.47347 142.221 -5.97754 143.472 -6.4883C144.145 -6.76277 144.81 -7.11629 145.483 -7.4343C145.434 -7.91007 145.577 -8.4426 145.942 -8.75576C146.211 -8.98518 146.421 -9.07059 146.742 -9.23286C146.814 -9.25815 146.858 -9.27322 146.878 -9.28159C146.863 -9.27824 146.819 -9.26485 146.747 -9.2414C146.576 -9.16253 146.563 -9.18614 146.707 -9.31006C146.715 -9.58119 147.25 -10.1539 147.372 -10.4336C147.797 -11.3933 147.93 -12.4081 148.558 -13.2823C149.423 -14.4864 150.877 -14.9417 152.232 -14.5333C152.372 -15.9818 152.409 -17.4938 152.955 -18.7868C152.97 -18.8218 153.019 -18.8371 153.041 -18.7986C153.61 -17.8288 153.659 -16.7488 153.702 -15.6301C153.744 -14.5801 153.704 -13.5067 153.566 -12.4634C153.653 -12.3964 153.742 -12.3326 153.834 -12.2708C154.266 -11.9861 154.732 -11.7668 155.221 -11.6041C156.152 -11.2962 157.128 -11.1622 158.105 -11.1153C160.625 -10.9947 163.222 -11.2493 165.701 -11.6813C168.208 -12.1184 172.051 -12.7749 174.282 -14.0292C175.754 -14.8563 177.112 -15.8663 178.489 -16.8443C177.989 -18.4519 177.862 -20.1801 178.364 -21.5383C178.425 -21.7007 178.679 -21.7308 178.728 -21.5383C179.043 -20.2421 179.135 -18.9392 179.553 -17.6581C179.56 -17.6397 179.567 -17.6194 179.574 -17.6012C179.704 -17.6898 179.835 -17.777 179.965 -17.8641C180.267 -18.0634 180.677 -17.9142 180.858 -17.6297C183.75 -13.073 188.33 -12.8117 193.14 -11.9977C198.403 -11.1069 203.693 -10.1457 208.754 -8.40241C213.594 -6.7343 218.219 -4.30608 221.883 -0.678818C222.713 0.142426 223.488 1.01742 224.22 1.93093C223.512 2.02019 222.81 2.15919 222.116 2.37706C221.295 2.63495 221.648 3.92794 222.472 3.66887C223.364 3.38888 224.265 3.25038 225.175 3.18139C227.665 6.58727 229.606 10.4491 231.285 14.2504C234.504 21.5386 236.6 29.3002 237.565 37.2023C237.035 36.885 236.496 36.5827 235.944 36.3015C235.176 35.9112 234.499 37.0673 235.267 37.4584C236.121 37.8924 236.95 38.3709 237.753 38.8897C238.104 42.3486 238.24 45.8299 238.157 49.3056C237.961 57.5917 236.843 66.1206 234.312 74.0266C233.071 77.9067 231.427 81.7552 228.977 85.0341C227.868 86.5193 226.609 87.8591 225.125 88.976C224.407 89.5186 223.647 90.0028 222.844 90.4112C221.811 90.9404 220.465 91.1145 219.574 91.8631C219.281 92.1095 219.055 92.4342 218.884 92.8009C218.983 93.4976 218.994 94.1959 218.804 94.8925C218.743 95.1104 218.579 95.2877 218.377 95.3732C218.373 95.4334 218.373 95.4921 218.373 95.549C218.373 95.5758 218.333 95.5825 218.328 95.5559C218.32 95.5038 218.311 95.4519 218.303 95.3984C218.238 95.42 218.169 95.4303 218.099 95.4303C215.555 95.4398 213.008 95.3778 210.461 95.2914C210.658 94.688 210.871 94.0899 211.076 93.4865C211.354 92.6669 210.06 92.3184 209.784 93.1305C209.544 93.8358 209.294 94.535 209.071 95.2429C206.342 95.1414 203.613 95.0195 200.89 94.9295C195.097 94.7368 189.306 94.6732 183.512 94.5511C174.514 94.3603 165.451 93.9698 156.439 94.3518C156.127 93.6903 155.779 93.0441 155.448 92.3916C155.058 91.6216 153.902 92.3004 154.291 93.0678C154.521 93.5212 154.759 93.9688 154.985 94.4213C153.16 94.5161 151.337 94.6413 149.517 94.8123C146.413 95.1035 143.338 95.621 140.236 95.9427C137.083 96.2708 133.998 96.2123 130.87 95.6915C130.307 95.5977 129.976 95.2576 129.838 94.8356C129.834 94.8339 129.83 94.8307 129.827 94.8255C129.666 94.638 129.515 94.4824 129.36 94.3466C129.174 94.2262 128.973 94.1239 128.737 94.0334C128.296 93.866 127.837 93.7638 127.372 93.6952C126.859 93.6183 126.34 93.6114 125.828 93.548C125.396 93.4927 124.974 93.4105 124.552 93.3102C123.793 93.1293 123.073 92.8932 122.356 92.5798C121.732 92.3071 121.167 91.9152 120.635 91.488C119.533 90.6825 118.578 89.6544 117.744 88.5858C117.259 87.9612 116.801 87.3131 116.386 86.6384C115.663 85.4694 115.046 84.2552 114.423 83.0311C114.197 82.6684 113.991 82.2969 113.802 81.9176C115.02 81.5589 116.249 81.2665 117.54 81.2457C118.403 81.2318 118.402 79.8921 117.54 79.906C116.06 79.9296 114.659 80.2755 113.268 80.6874C113.2 80.5074 113.135 80.326 113.075 80.1423C112.91 79.759 112.772 79.3653 112.658 78.9667C112.592 78.7859 112.524 78.605 112.457 78.4241C112.307 77.7978 112.156 77.1698 112.004 76.5419C111.7 75.5371 111.461 74.5172 111.285 73.484C111.138 72.8041 111.024 72.1191 110.947 71.4258C110.712 69.7462 110.522 68.0699 110.508 66.3718C110.528 65.3251 110.595 64.2802 110.709 63.2402C110.758 62.5335 110.84 61.8302 110.95 61.1319C111.094 60.0936 111.237 59.0655 111.476 58.0405C111.655 57.3473 111.834 56.6539 112.014 55.9606C112.461 54.5155 112.988 53.0986 113.596 51.7137C113.63 51.6268 113.799 51.4357 113.901 51.434C113.978 51.4324 114.085 51.5027 114.05 51.5966C114.047 51.6048 114.043 51.6149 114.04 51.6233C114.075 51.5446 114.109 51.4642 114.144 51.3855C114.174 51.3118 114.291 51.1646 114.382 51.1663C114.387 51.1663 114.392 51.1663 114.398 51.1678C114.375 51.1512 114.353 51.1292 114.331 51.1043C113.73 50.3926 113.34 49.4563 112.91 48.6324C112.553 47.9525 112.216 47.2357 112.119 46.4671C112.034 45.7923 112.149 45.1273 112.573 44.5814C113.055 43.9601 113.963 43.6687 113.459 42.7711C112.886 41.7496 112.044 40.8637 112.883 39.7032C113.31 39.1121 113.986 38.7873 114.489 38.2731C115.066 37.6786 115.341 36.8831 115.326 36.0709C115.291 36.091 115.244 36.0811 115.227 36.0307C114.742 34.5637 115.093 32.9529 115.591 31.5243C115.862 30.7491 116.437 30.5362 117.105 30.4979C114.211 24.846 111.503 19.1035 109.09 13.2289C109.009 13.0363 108.931 12.8439 108.852 12.6511C108.735 12.3631 108.983 11.9798 109.269 11.916C111.356 11.4588 113.529 11.3131 115.654 11.1123Z" fill="black"/>
</g>
<path d="M119.042 83.9609L73.134 2.24072H2V134.214L119.042 83.9609Z" fill="white" stroke="black" stroke-width="4"/>
<mask id="mask2_7_2488" style="mask-type:luminance" maskUnits="userSpaceOnUse" x="0" y="0" width="122" height="138">
<path d="M119.042 83.9609L73.134 2.24072H2V134.214L119.042 83.9609Z" fill="white" stroke="white" stroke-width="4"/>
</mask>
<g mask="url(#mask2_7_2488)">
<path fill-rule="evenodd" clip-rule="evenodd" d="M55.2122 82.4934C53.999 82.0608 52.8297 81.5613 51.7643 80.8264C48.6931 78.5404 46.6906 75.1002 44.7984 71.8407C42.1331 67.1001 40.2344 62.0486 38.9219 56.7789C38.3579 54.5149 38.1663 51.8898 36.885 49.8825C33.9802 45.6795 25.4625 46.2241 20.9396 46.9619C17.9108 47.4978 17.2847 50.8873 16.5968 53.3954C16.024 55.4794 15.6491 57.587 15.3343 59.7228C14.5855 60.2151 13.7401 60.615 12.9343 60.9633C4.15259 63.6561 2.60913 68.6483 -0.745056 76.3598C-6.41024 87.5682 -21.7827 91.9567 -24.1047 105.222C-25.6009 113.979 -21.3464 122.218 -16.9601 129.498C-12.8751 137.45 -7.1722 141.267 1.9099 139.388C10.4284 137.477 18.6152 134.281 26.9838 131.811C31.037 130.814 35.0839 128.222 39.3475 129.126C48.1329 131.099 57.1594 132.027 66.1628 131.77C78.8039 132.282 78.802 120.149 77.5045 110.753C76.5958 96.1317 69.2207 86.7429 55.2122 82.4934Z" fill="white"/>
<path fill-rule="evenodd" clip-rule="evenodd" d="M56.0573 103.651C57.1136 104.35 58.002 105.409 58.7152 106.523C55.7378 106.214 52.7656 105.856 49.7999 105.45C50.1882 105.202 50.58 104.959 50.9809 104.73C52.4431 103.906 54.4244 102.571 56.0573 103.651ZM6.58978 112.452C6.04424 112.239 5.83314 111.407 5.62051 110.93C4.95383 109.435 4.34542 107.914 3.71241 106.404C6.1159 105.719 8.45317 104.959 10.943 104.594C13.6202 104.201 16.3369 104.106 19.0388 104.195C24.5116 104.373 29.9336 105.268 35.3142 106.227C40.6885 107.185 46.0625 108.105 51.4744 108.827C56.7767 109.535 62.0956 110.053 67.4246 110.507C68.4599 110.596 70.1863 110.968 71.0189 110.153C71.6782 109.508 71.6996 108.318 70.8746 107.793C70.3608 107.466 69.6163 107.462 69.0292 107.386C68.2899 107.291 67.5477 107.228 66.8039 107.178C66.5008 107.158 66.1978 107.14 65.8947 107.121C68.3279 106.204 70.8693 105.704 73.5072 105.843C73.6564 106.749 74.3285 107.682 74.6964 108.429C75.3387 109.734 75.8394 111.055 76.1682 112.474C76.8552 115.439 76.8851 118.517 76.6911 121.542C76.5128 124.064 76.1299 126.854 74.1517 128.64C72.6539 129.992 70.5407 130.493 68.5802 130.65C66.3016 130.833 63.9878 130.638 61.7284 130.332C58.5593 129.904 55.3754 129.337 52.2686 128.578C46.2514 127.107 40.4838 124.767 35.1626 121.594C32.5676 120.046 30.0914 118.306 27.4608 116.817C24.7802 115.3 21.928 114.124 18.933 113.393C15.5814 112.575 12.0775 112.226 8.63269 112.428C8.03489 112.463 7.17124 112.68 6.58978 112.452ZM2.7057 110.934C3.0579 112.077 3.32739 113.382 4.07914 114.342C4.82377 115.294 5.94714 115.63 7.11089 115.714C8.51408 115.816 9.93377 115.751 11.34 115.803C14.2243 115.91 17.0689 116.379 19.8262 117.238C22.3956 118.039 24.7808 119.288 27.0784 120.674C29.203 121.956 31.2654 123.332 33.3907 124.609C32.825 124.869 32.2658 125.149 31.7035 125.394C30.5241 125.906 29.3374 126.4 28.1455 126.882C25.7949 127.832 23.4345 128.759 21.0498 129.62C16.2415 131.356 11.354 132.873 6.40775 134.165C4.04869 134.782 1.65609 135.502 -0.794756 135.604C-2.96801 135.695 -4.98102 135.081 -6.73376 133.789C-10.3692 131.109 -13.2615 127.24 -15.5996 123.424C-16.9887 121.157 -18.2009 118.775 -19.2036 116.313C-19.7107 115.067 -20.1706 113.802 -20.5846 112.523C-20.7787 111.922 -20.9629 111.318 -21.1372 110.711C-21.2139 110.444 -21.2874 110.177 -21.3602 109.909C-17.6428 108.774 -13.8812 107.75 -10.0314 107.182C-7.97588 106.878 -5.89302 106.725 -3.81504 106.747C-2.7836 106.758 -1.75271 106.814 -0.726719 106.92C-0.174465 106.978 0.375557 107.051 0.923203 107.143C1.14952 107.18 1.38213 107.236 1.61544 107.277C1.97182 108.498 2.33115 109.718 2.7057 110.934ZM79.5495 106.079C79.7498 105.673 79.8343 105.275 79.9061 104.833C79.9609 104.497 80.1062 104.023 79.9789 103.586C79.8364 103.097 79.4482 102.659 79.1694 102.242C78.8617 101.78 78.5542 101.319 78.2471 100.857C77.6328 99.9332 77.02 99.0088 76.408 98.0837C73.9091 94.3059 71.4273 90.5172 68.9415 86.7309C66.7355 83.3709 64.5668 79.9807 62.2936 76.6657C60.3499 73.8311 58.2313 71.0433 55.5707 68.8387C52.2068 66.0513 48.2011 64.7383 44.0171 63.7137C43.5601 63.2394 42.9498 62.9803 42.2973 63.0329C41.3756 61.9875 40.6429 61.2572 40.3109 59.9278C40.1517 59.291 40.2016 57.5018 39.5815 57.125C38.8448 56.6774 38.4601 57.2698 38.2569 57.9375C37.5772 60.1714 38.3574 63.1748 40.1526 65.4125C39.3962 68.0265 38.3934 71.7415 36.6045 73.8357C34.6888 76.0781 32.0396 76.7761 29.1812 76.8221C23.7302 76.9098 18.2849 74.8839 14.1272 71.3729C12.8634 70.3058 11.6897 69.114 10.6278 67.8464C9.83137 66.8954 8.88919 65.4278 8.26611 64.3186C8.26611 63.8863 7.75573 63.4342 12.9518 63.085C18.1479 62.7357 18.542 55.6209 18.6575 54.6527C18.7514 53.8664 19.1507 52.6459 18.5966 52.0048C18.3615 51.7325 17.8789 51.6887 17.5808 51.8736C17.0186 52.2228 16.834 53.1155 16.6572 53.7217C16.4097 54.5709 15.6004 59.8416 14.0668 60.4518C13.3489 60.7375 12.5254 60.7428 11.766 60.7956C10.8282 60.8612 9.88837 60.9091 8.9543 61.0182C8.60978 61.0584 8.23398 61.1699 7.89407 61.1731C7.67292 61.1752 7.44478 61.0678 7.23103 60.9923C6.50959 60.7374 5.78872 60.9286 5.04548 61.0285C-1.52569 61.9116 -8.29176 63.9271 -13.8967 67.5537C-18.837 70.7502 -22.3175 75.3472 -24.6141 80.7219C-26.9574 86.207 -28.3005 92.1385 -29.4261 97.9776C-29.8031 99.934 -30.1324 101.9 -30.4153 103.872C-30.6887 105.778 -31.0307 107.726 -31.1126 109.651C-31.145 110.412 -30.963 111.12 -30.6829 111.816C-30.3674 112.599 -29.6218 112.908 -28.9067 113.273C-27.3368 114.076 -25.6807 114.699 -23.9745 115.14C-22.9322 117.036 -22.055 119.007 -21.35 121.051C-21.6115 121.57 -21.617 122.343 -21.6673 122.847C-21.792 124.101 -21.8454 125.362 -21.8566 126.622C-21.8791 129.147 -21.7272 131.67 -21.6082 134.191C-21.4875 136.748 -21.0862 146.837 -21.0209 148.069C-20.97 149.027 -21.0385 150.365 -20.5343 151.215C-19.7595 152.521 -17.8472 152.477 -16.9614 151.418C5.04549 156.149 46.4123 154.724 63.0728 152.344C65.2404 152.034 64.5598 152.378 65.1111 151.83C65.5247 151.419 65.8768 150.715 65.9912 150.149C66.144 149.393 65.8973 148.709 65.4648 148.098C65.01 147.455 64.9272 146.415 64.7583 145.65C64.3589 143.844 64.1604 135.91 63.9737 135.031C63.9156 134.757 63.8593 134.467 63.7914 134.177C66.8475 134.467 70.0318 134.467 72.9392 133.445C74.5878 132.865 76.1254 131.955 77.309 130.655C78.7421 129.081 79.5394 127.099 79.9494 125.031C80.4785 122.364 80.5908 119.601 80.4869 116.89C80.3424 113.686 79.811 110.436 78.4919 107.494C78.9259 107.091 79.2897 106.605 79.5495 106.079Z" fill="black"/>
<path fill-rule="evenodd" clip-rule="evenodd" d="M54.7886 25.6439C54.2591 16.9539 51.4393 7.10178 43.1403 2.83518C24.8446 -4.50745 0.789628 13.9834 -0.483925 32.8732C-0.927908 39.3393 2.66224 46.4049 9.22293 48.2026C10.6816 50.1352 12.8875 51.3154 15.0648 52.3397C40.9979 65.7943 57.7495 54.8572 54.7886 25.6439Z" fill="white"/>
<path fill-rule="evenodd" clip-rule="evenodd" d="M60.6966 20.2383C59.7801 17.6929 58.8119 15.167 57.7935 12.6607C56.8016 10.2215 55.9056 7.72948 54.6739 5.40582C47.317 -8.4725 33.9388 -8.4725 27.0234 -6.65912C23.4372 -8.20426 16.7201 -7.76842 12.9858 -6.37412C6.94051 -4.11691 -0.428801 4.76248 -2.94838 8.7519C-8.51131 17.5602 -11.983 29.2838 -8.28778 39.4622C-7.80482 40.7925 -7.18886 42.0245 -6.49536 43.2119C-6.93222 43.8039 -7.43502 44.3647 -7.99202 44.9157C-9.64725 46.5533 -11.3025 48.137 -12.7324 49.9841C-14.1533 51.8197 -15.3313 53.7716 -16.2082 55.9238C-17.8618 59.9825 -17.9414 64.5782 -15.7553 68.451C-13.8534 71.8207 -10.4841 74.3299 -6.68815 74.5693C-6.49327 74.5964 -6.2981 74.6212 -6.10209 74.6409C-5.59915 75.4694 -4.98585 76.2322 -4.28592 76.8972C-2.14145 78.9369 2.97037 79.9833 5.88602 80.0503C6.0355 80.1705 6.18638 80.2906 6.33726 80.4094C8.1213 81.8134 9.99335 83.23 12.0414 84.2289C13.4287 84.9065 15.2477 85.4723 16.695 84.9833C17.3516 85.422 18.4287 85.3298 19.0798 84.9707C20.1499 84.3812 21.0203 83.3194 21.5498 82.2325C22.8337 79.5935 22.5249 76.7058 22.1952 73.8865C21.832 70.7725 21.4827 67.6571 21.1279 64.543C20.8498 62.108 20.5593 59.6324 19.8188 57.2868C19.436 56.0713 18.9345 54.9034 18.2863 53.8053C18.303 53.7131 18.3002 53.6209 18.2737 53.5343C18.0613 52.8441 17.6227 52.4823 17.1029 52.0129C17.0359 51.9528 16.9688 51.8913 16.9032 51.8285C16.6433 51.5323 16.3653 51.2571 16.0677 51.0238C15.9532 50.9078 15.84 50.7905 15.7268 50.6731C14.7866 49.6882 13.8981 48.653 13.1088 47.5437C12.3432 46.468 11.6516 45.3447 10.9936 44.2006C10.3245 43.0368 9.88158 41.7529 9.21379 40.5976C9.15652 40.4984 9.01122 40.4788 8.93019 40.5612C8.72343 40.775 8.59071 41.0125 8.61585 41.2626L8.51247 41.2779C8.47335 40.9007 8.12549 40.5934 7.65329 40.6758C6.94638 40.7987 6.3652 40.8448 5.75329 40.6101C5.86087 39.8962 5.96006 39.181 6.05785 38.4643C6.23668 37.1455 6.40292 35.8224 6.54542 34.4994C6.8905 34.5819 7.23277 34.7006 7.56807 34.8515C8.04586 35.0652 8.49711 35.353 8.88269 35.7065C9.26269 36.0558 9.52534 36.5266 9.98916 36.7696C10.5228 37.0477 11.1669 36.588 11.0104 35.9845C10.6933 34.7649 8.89806 34.0663 7.7874 33.8358C7.40601 33.7562 7.01623 33.7227 6.62645 33.7311C6.71447 32.8816 6.7927 32.0322 6.85697 31.1814C6.8877 30.7791 6.91564 30.3767 6.94219 29.973C7.80556 29.7117 8.73041 29.6335 9.62872 29.7564C9.92489 29.9925 10.2211 30.2259 10.5075 30.462C11.4169 31.2136 12.3222 31.9694 13.2163 32.7392C13.2974 32.8076 13.377 32.8761 13.458 32.9459C13.9889 33.4027 14.6511 32.9501 14.5617 32.3033C13.8324 27.0028 17.0792 22.7865 20.8806 19.5202C25.0885 15.9033 32.7388 15.4821 37.743 9.21698C40.0477 9.68605 45.1935 11.0793 47.317 14.4629C50.2899 19.2045 49.9015 23.4529 50.1279 28.8316C50.3542 34.2144 50.9298 39.8292 49.7074 45.1366C48.5799 50.0305 45.5274 54.2118 40.7914 56.1342C40.674 56.1817 40.5553 56.2278 40.4365 56.2725C37.9875 57.1959 35.3149 57.4572 32.7388 56.971C29.8874 56.4318 27.5068 55.1269 25.1346 53.5217C24.9977 53.4309 24.7979 53.6181 24.9013 53.755C28.0279 57.8987 34.1693 59.2831 39.0409 58.1892C39.2686 58.1376 39.4949 58.0817 39.7198 58.0202C38.6301 61.1538 38.8495 64.5933 40.2689 67.6445C41.1225 69.4802 42.4245 71.0687 44.0102 72.3218C45.7579 73.7021 47.9261 74.817 49.1388 76.7547C50.2494 78.5303 49.9197 80.5253 48.0183 81.5508C47.5391 81.8106 47.3547 82.6502 47.8297 83.0191C48.0113 83.1588 48.1929 83.3013 48.3788 83.441C49.4433 84.2443 52.3673 85.7531 52.8409 85.809C57.0461 86.3077 59.8737 83.2202 61.6857 79.5781C63.8134 75.3031 63.2602 70.0935 60.9159 66.0225C59.0355 62.7562 55.3319 59.5374 56.8044 55.4035C57.3297 53.9268 58.404 52.6681 59.4476 51.5309C60.6379 50.2358 61.9176 49.0232 63.059 47.682C64.1934 46.3506 65.1993 44.9019 65.7609 43.231C66.5809 40.789 66.173 38.1485 65.5569 35.7107C64.2367 30.4773 62.5225 25.3138 60.6966 20.2383Z" fill="black"/>
<path fill-rule="evenodd" clip-rule="evenodd" d="M40.5584 47.4526C39.5292 47.7507 38.4245 47.7774 37.3755 47.4695C36.424 47.1903 35.447 46.5758 34.7467 45.7627C34.1246 45.0403 33.7217 44.1625 33.7375 43.2255C33.7393 43.1184 33.7776 43.0291 33.8365 42.9598C33.8998 42.8851 33.9883 42.8339 34.0832 42.8116C34.1807 42.7888 34.2838 42.7969 34.3715 42.8367C34.451 42.8728 34.5191 42.9341 34.5616 43.0238C34.6693 43.1651 34.7765 43.3044 34.8841 43.4398C35.7494 44.5083 36.5874 45.3069 37.8886 45.5933C38.5946 45.7487 39.2997 45.6798 39.9467 45.4426C40.6392 45.1888 41.2653 44.7425 41.7558 44.1713C41.9775 43.9132 42.2393 43.8079 42.4952 43.8061C42.7852 43.8041 43.0719 43.9389 43.2879 44.1543C43.5002 44.366 43.6423 44.6537 43.6552 44.9547C43.6665 45.2189 43.5803 45.4948 43.3511 45.741C42.5959 46.5519 41.6173 47.146 40.5584 47.4526ZM40.5266 34.07C41.5816 34.7113 43.189 36.2066 42.0541 37.7963C40.7182 39.1981 38.7948 37.5909 37.847 36.864C36.9682 36.3007 35.9807 37.7495 36.7961 38.4073C43.645 43.4779 46.4244 34.2377 41.0602 33.3161C40.4696 33.2145 40.2502 33.8717 40.5266 34.07ZM30.6579 31.2484C30.3188 31.0316 29.92 30.9571 29.4779 31.1582C29.1325 31.3153 28.5266 31.839 28.105 32.5275C27.8165 32.9984 27.6119 33.5509 27.6545 34.1265C27.6644 34.2601 27.615 34.3587 27.5371 34.4315C27.4756 34.4891 27.3867 34.5314 27.2824 34.5446C27.1937 34.5558 27.0945 34.5457 27.0139 34.5205C26.8605 34.4726 26.7793 34.3731 26.7487 34.2919C26.4534 33.5078 26.5806 32.6329 26.9115 31.8435C27.358 30.7783 28.169 29.886 28.7003 29.5983C29.6094 29.1058 30.6819 29.0831 31.5924 29.5848C32.3674 30.0118 32.852 30.7012 33.334 31.4039C33.4364 31.5533 33.5381 31.7016 33.6432 31.8473C33.8539 32.1392 33.8748 32.4287 33.7933 32.677C33.7029 32.952 33.4725 33.1841 33.1844 33.3056C32.9181 33.4178 32.609 33.4336 32.3355 33.3183C32.1045 33.2208 31.8924 33.0309 31.7583 32.7086C31.5323 32.1657 31.1559 31.5669 30.6579 31.2484ZM47.8788 32.4561C47.6466 32.5771 47.4649 32.6135 47.2073 32.5364C47.0648 32.4936 46.924 32.4116 46.8138 32.3013C46.7046 32.1921 46.6258 32.0563 46.5951 31.9055C46.5198 31.5336 46.3163 31.1854 46.0263 30.9585C45.7784 30.7645 45.4655 30.6617 45.1185 30.7197C44.744 30.7822 44.3873 31.0223 44.1415 31.3055C44.0594 31.4002 43.995 31.5078 43.9303 31.6147C43.8092 31.8146 43.6916 32.0004 43.5246 32.1472C43.4613 32.203 43.3659 32.2417 43.2736 32.2417C43.236 32.2417 43.1979 32.2356 43.1616 32.2243C42.7889 31.8502 42.7172 31.5664 42.7292 31.2849C42.7418 30.9898 42.8582 30.6909 43.0463 30.4121C43.4874 29.758 44.325 29.2217 44.8902 29.1002C45.6642 28.9339 46.4329 29.1335 47.0492 29.5659C47.6834 30.0107 48.1533 30.7013 48.2998 31.4796C48.335 31.6671 48.32 31.8694 48.2486 32.0448C48.1789 32.2163 48.0573 32.3631 47.8788 32.4561ZM32.365 24.2747C31.9005 24.7273 31.3507 24.7974 30.7945 24.8597C30.4855 24.8947 30.2387 24.9229 29.996 24.9777C29.3287 25.1283 28.6691 25.3551 28.0674 25.6819C27.4383 26.0234 26.7528 26.4353 26.2596 26.963C26.1423 27.0886 26.0318 27.2203 25.9211 27.3524C25.8201 27.4728 25.7229 27.5887 25.6204 27.7005C25.5027 27.8288 25.391 27.9634 25.2798 28.0976C25.2111 28.2108 25.1975 28.2387 25.1836 28.2677C25.1628 28.3112 25.1386 28.36 25.1109 28.4123C25.073 28.4839 25.0286 28.5624 24.9821 28.6335C24.9047 28.7634 24.8632 28.7992 24.8274 28.8152C24.7678 28.8417 24.7114 28.8548 24.6566 28.8477C24.6053 28.8411 24.5569 28.8164 24.5091 28.776C24.2707 28.5745 24.2003 28.2439 24.2075 27.8929C24.2185 27.3602 24.4149 26.7704 24.596 26.4079C25.0172 25.5655 25.6012 24.6898 26.3035 24.0611C27.1048 23.3434 27.9815 22.8001 28.9885 22.4258C29.6143 22.193 30.3389 21.9794 31.0206 22.0064C31.5114 22.0258 31.9799 22.1717 32.3667 22.536C32.6043 22.7596 32.7184 23.0777 32.7184 23.3955C32.7184 23.7197 32.5999 24.0458 32.365 24.2747ZM48.8235 28.419C48.794 28.4674 48.7531 28.5008 48.7076 28.5208C48.6599 28.5419 48.6066 28.5479 48.5555 28.5393C48.5047 28.5307 48.4563 28.5077 48.418 28.4724C48.3812 28.4386 48.3532 28.3939 48.3407 28.339C48.0323 26.9845 47.4335 25.9767 46.1553 25.3268C45.5266 25.0071 44.8036 24.804 44.1192 24.642C43.9203 24.595 43.7101 24.5645 43.4985 24.5336C42.8352 24.4367 42.1671 24.3258 41.7347 23.7897C41.4741 23.4667 41.3648 23.0537 41.4266 22.6759C41.4848 22.3203 41.6926 21.9941 42.0704 21.7987C43.011 21.3124 44.1798 21.7896 45.1297 22.1961C45.2001 22.2263 45.2693 22.2559 45.3369 22.2844C46.2658 22.6765 47.1129 23.194 47.8093 23.9341C48.3619 24.5213 48.8738 25.3893 49.08 26.2823C49.2515 27.0252 49.2112 27.7836 48.8235 28.419Z" fill="black"/>
</g>
</svg>
