<svg width="257" height="38" viewBox="0 0 257 38" fill="none" xmlns="http://www.w3.org/2000/svg">
<path d="M1.5 35C0.5 35 1.41561e-07 34.5 1.41561e-07 33.5C1.41561e-07 32.5 0.5 32 1.5 32C8.16667 32 12.75 31.5 15.25 30.5C16.4167 30.0333 17 29.55 17 29.05C17 28.55 16.5833 28.1 15.75 27.7C14.95 27.3 13.5833 26.7833 11.65 26.15C9.75 25.5167 8.3 24.9833 7.3 24.55C2.43333 22.5167 1.41561e-07 19.4333 1.41561e-07 15.3C1.41561e-07 12.6 1.16667 10.3333 3.5 8.5C5.83333 6.63333 8.63333 5.7 11.9 5.7C13.7 5.7 15.2 6.23333 16.4 7.3C17.6333 8.36667 18.25 9.65 18.25 11.15C18.25 12.65 17.6667 13.9833 16.5 15.15C15.3333 16.3167 14.5333 16.9 14.1 16.9C13.1 16.9 12.6 16.4 12.6 15.4C12.6 14.9667 13.0333 14.3167 13.9 13.45C14.8 12.55 15.25 11.8667 15.25 11.4C15.25 10.6 14.9333 9.95 14.3 9.45C13.7 8.95 12.9167 8.7 11.95 8.7C9.48333 8.7 7.36667 9.33333 5.6 10.6C3.86667 11.8333 3 13.3333 3 15.1C3 16.8667 3.48333 18.25 4.45 19.25C5.45 20.25 6.56667 21.0167 7.8 21.55C9.06667 22.05 10.3333 22.5167 11.6 22.95C12.8667 23.35 13.9167 23.7167 14.75 24.05C15.6167 24.35 16.4833 24.7333 17.35 25.2C19.1167 26.1667 20 27.4333 20 29C20 31.0333 18.5333 32.55 15.6 33.55C12.7 34.5167 8 35 1.5 35ZM50.5234 23.85C49.3234 26.4167 48.0401 28.5 46.6734 30.1C45.3068 31.7 44.0901 32.5 43.0234 32.5C40.7901 32.5 39.3234 30.8833 38.6234 27.65C37.9234 28.85 37.0568 29.95 36.0234 30.95C33.9568 32.9833 31.6234 34 29.0234 34C27.6901 34 26.5234 33.5 25.5234 32.5C24.5234 31.5 24.0234 30.3333 24.0234 29C24.0234 25.7333 25.2068 22.9167 27.5734 20.55C29.9401 18.1833 32.4568 17 35.1234 17C36.6234 17 37.9068 17.2833 38.9734 17.85C40.0734 18.3833 40.6234 18.9333 40.6234 19.5C40.6234 20.5 40.1234 21 39.1234 21C38.9234 21 38.4401 20.8333 37.6734 20.5C36.9068 20.1667 36.0568 20 35.1234 20C33.3901 20 31.6068 20.8667 29.7734 22.6C27.9401 24.3333 27.0234 26.4667 27.0234 29C27.0234 29.5 27.2234 29.9667 27.6234 30.4C28.0234 30.8 28.5234 31 29.1234 31C29.7568 31 30.3901 30.8833 31.0234 30.65C31.6901 30.4167 32.2401 30.15 32.6734 29.85C33.1068 29.55 33.5568 29.15 34.0234 28.65C34.7234 27.95 35.3568 27.1667 35.9234 26.3L36.4234 25.5C36.9568 24.7333 37.2734 24.2667 37.3734 24.1C37.5068 23.9 37.6401 23.7 37.7734 23.5C37.9401 23.3 38.0568 23.15 38.1234 23.05C38.2234 22.95 38.3234 22.85 38.4234 22.75C38.5901 22.5833 38.8734 22.5 39.2734 22.5C39.7068 22.5 40.0568 22.7167 40.3234 23.15C40.6234 23.55 40.9068 24.35 41.1734 25.55C41.7068 28.1833 42.3234 29.5 43.0234 29.5C43.2568 29.5 43.6401 29.1833 44.1734 28.55C44.7401 27.9167 45.3734 27 46.0734 25.8C46.7734 24.6 47.4568 23.2667 48.1234 21.8C49.7568 18.3 50.7734 14.8 51.1734 11.3C51.1734 11.2 51.2068 10.75 51.2734 9.95C51.3734 9.11667 51.4901 7.96667 51.6234 6.5C51.7568 5.03333 51.8901 3.56667 52.0234 2.1C52.1234 1.1 52.6234 0.599999 53.5234 0.599999C54.5234 0.599999 55.0234 1.1 55.0234 2.1C55.0234 2.23333 54.9901 2.56667 54.9234 3.1C53.9901 12.4333 53.5234 19.5667 53.5234 24.5C53.5234 26.1 53.6901 27.2667 54.0234 28C57.6901 24.3333 61.1901 22.5 64.5234 22.5C65.5234 22.5 66.0234 23 66.0234 24C66.0234 25 65.4568 25.5 64.3234 25.5C63.2234 25.5 62.0234 25.85 60.7234 26.55C59.4568 27.2167 58.4068 27.95 57.5734 28.75C56.7734 29.55 56.0234 30.3 55.3234 31C54.6568 31.6667 54.2234 32 54.0234 32C52.7901 32 51.8901 31.1833 51.3234 29.55C50.7901 27.8833 50.5234 25.9833 50.5234 23.85ZM74.0195 21.5C74.0195 21.0667 74.1529 20.7167 74.4195 20.45C74.6862 20.15 75.0529 20 75.5195 20C76.5195 20 77.0195 20.5 77.0195 21.5C77.0195 24.0667 77.6195 26.4667 78.8195 28.7C80.0529 30.9 81.4529 32 83.0195 32C83.7195 32 85.2529 28.0333 87.6195 20.1C87.9195 19.1 88.5529 18.6 89.5195 18.6C90.0195 18.6 90.3862 18.7 90.6195 18.9C90.8529 19.1 90.9862 19.3667 91.0195 19.7C91.0862 20.0333 91.1862 20.6667 91.3195 21.6C91.4529 22.5333 91.6195 23.4667 91.8195 24.4C91.9862 25.3333 92.2029 26.3333 92.4695 27.4C93.0695 29.8 93.7529 31 94.5195 31C95.1529 31 95.7195 30.9167 96.2195 30.75C96.7195 30.5833 97.0195 30.5 97.1195 30.5C98.1195 30.5 98.6195 31 98.6195 32C98.6195 32.7333 98.1695 33.25 97.2695 33.55C96.3695 33.85 95.5362 34 94.7695 34C94.0029 34 93.3695 33.8833 92.8695 33.65C92.3695 33.3833 91.9529 33.0667 91.6195 32.7C91.3529 32.3667 91.0529 31.8667 90.7195 31.2C90.3529 30.4667 90.0029 29.6167 89.6695 28.65C89.3695 27.6833 89.2029 27.1167 89.1695 26.95C89.1362 26.7833 89.1029 26.6167 89.0695 26.45C89.0695 26.25 89.0529 26.1 89.0195 26C88.9529 26.1333 88.8862 26.3333 88.8195 26.6L88.6195 27.2C88.5529 27.3333 88.4862 27.4833 88.4195 27.65C88.3862 27.7833 88.2195 28.3 87.9195 29.2C87.6195 30.0667 87.3529 30.7667 87.1195 31.3C86.8862 31.7667 86.5695 32.3333 86.1695 33C85.3695 34.3333 84.2695 35 82.8695 35C81.5029 35 80.0695 34.3333 78.5695 33C77.0695 31.6667 75.9029 29.8833 75.0695 27.65C74.4362 28.6833 73.6695 29.6333 72.7695 30.5C71.2695 31.9667 70.1695 32.8333 69.4695 33.1C68.8029 33.3667 68.2862 33.5 67.9195 33.5C66.9195 33.5 66.4195 33 66.4195 32C66.4195 31.3667 66.9195 30.85 67.9195 30.45C68.9195 30.0167 70.1862 28.95 71.7195 27.25C73.2529 25.55 74.0195 23.6333 74.0195 21.5ZM103.023 17C103.023 12.8333 103.99 9.28333 105.923 6.35C107.89 3.38333 110.69 1.9 114.323 1.9C116.823 1.9 118.973 3.01666 120.773 5.25C122.607 7.45 123.523 9.7 123.523 12C123.523 16.0667 119.29 19.05 110.823 20.95C110.323 21.05 110.057 21.1 110.023 21.1C109.023 21.1 108.523 20.6 108.523 19.6C108.523 18.8667 109.023 18.3667 110.023 18.1C117.023 16.4667 120.523 14.4333 120.523 12C120.523 10.4667 119.907 8.9 118.673 7.3C117.44 5.7 115.923 4.9 114.123 4.9C112.357 4.9 110.823 5.5 109.523 6.7C107.19 8.9 106.023 12.3333 106.023 17C106.023 19.6 106.207 22.5 106.573 25.7C106.94 28.8667 107.373 31.1833 107.873 32.65C107.973 32.95 108.023 33.2333 108.023 33.5C108.023 34.5 107.523 35 106.523 35C105.99 35 105.59 34.7667 105.323 34.3C104.657 32.9333 104.107 30.45 103.673 26.85C103.24 23.25 103.023 19.9667 103.023 17ZM123.023 27.9C123.023 25.1667 123.957 22.6667 125.823 20.4C127.69 18.1333 129.757 17 132.023 17C133.623 17 134.94 17.45 135.973 18.35C137.007 19.25 137.523 20.5 137.523 22.1C137.523 23.7 136.857 25.2 135.523 26.6C134.223 28 132.823 29.0333 131.323 29.7C129.823 30.3667 128.573 30.7 127.573 30.7C128.773 31.5667 130.557 32 132.923 32C135.29 32 137.623 31.6167 139.923 30.85C140.623 30.6167 141.023 30.5 141.123 30.5C142.123 30.5 142.623 31 142.623 32C142.623 32.7333 142.123 33.2667 141.123 33.6C138.323 34.5333 135.623 35 133.023 35C130.957 35 128.89 34.5833 126.823 33.75C125.69 33.2833 124.773 32.55 124.073 31.55C123.373 30.55 123.023 29.3333 123.023 27.9ZM126.023 27.9C128.023 27.9 129.94 27.2667 131.773 26C133.607 24.7333 134.523 23.4 134.523 22C134.523 20.6667 133.757 20 132.223 20C130.69 20 129.273 20.8333 127.973 22.5C126.673 24.1333 126.023 25.9333 126.023 27.9ZM146.018 23L146.518 25C146.518 26 146.018 26.5 145.018 26.5C144.584 26.5 144.134 26.15 143.668 25.45C143.234 24.75 143.018 23.9333 143.018 23C143.018 22.0667 143.251 21.3333 143.718 20.8C144.218 20.2667 144.984 19.7167 146.018 19.15C148.518 17.7167 151.518 17 155.018 17C156.318 17 157.384 17.5667 158.218 18.7C159.084 19.8 159.518 21.25 159.518 23.05C159.518 24.85 160.034 26.8833 161.068 29.15C162.101 31.3833 163.251 32.5 164.518 32.5C165.551 32.5 166.368 32.05 166.968 31.15C167.568 30.25 168.318 29.3 169.218 28.3C170.118 27.2667 171.218 26.1333 172.518 24.9C173.818 23.6333 175.268 22.5833 176.868 21.75C178.468 20.9167 179.984 20.5 181.418 20.5C184.418 20.5 186.768 21.5167 188.468 23.55C190.168 25.5833 191.018 28.0667 191.018 31C191.018 33.2667 190.251 35 188.718 36.2C187.218 37.4 185.651 38 184.018 38C183.018 38 182.518 37.5167 182.518 36.55C182.518 35.5833 183.018 35.0667 184.018 35C185.084 34.9333 186.018 34.5667 186.818 33.9C187.618 33.2333 188.018 32.2667 188.018 31C188.018 28.9333 187.484 27.1667 186.418 25.7C185.384 24.2333 183.718 23.5 181.418 23.5C180.084 23.5 178.518 24.1333 176.718 25.4C173.884 27.4 171.484 29.85 169.518 32.75C168.984 33.55 168.268 34.2167 167.368 34.75C166.468 35.25 165.518 35.5 164.518 35.5C162.351 35.5 160.468 34.1333 158.868 31.4C157.301 28.6333 156.518 25.6667 156.518 22.5C156.518 21.9 156.384 21.3333 156.118 20.8C155.884 20.2667 155.534 20 155.068 20C152.301 20 149.701 20.6333 147.268 21.9C146.434 22.3 146.018 22.6667 146.018 23ZM198.321 32.1C198.288 32.1 198.038 32.2333 197.571 32.5C196.371 33.1667 195.488 33.5 194.921 33.5C193.921 33.5 193.421 33 193.421 32C193.421 31.3667 193.921 30.85 194.921 30.45C195.088 30.3833 195.488 30.1833 196.121 29.85C196.755 29.5167 197.121 29.3167 197.221 29.25C197.088 28.95 197.021 28.5 197.021 27.9C197.021 24.9 198.071 22.3333 200.171 20.2C202.271 18.0667 204.188 17 205.921 17C207.655 17 209.021 17.4167 210.021 18.25C211.021 19.05 211.521 20.0333 211.521 21.2C211.521 22.3333 211.255 23.3167 210.721 24.15C210.188 24.9833 209.355 25.8 208.221 26.6C206.655 27.7333 204.371 29.05 201.371 30.55C202.705 31.5167 204.555 32 206.921 32C209.288 32 211.621 31.6167 213.921 30.85C214.621 30.6167 215.021 30.5 215.121 30.5C216.121 30.5 216.621 31 216.621 32C216.621 32.7333 216.121 33.2667 215.121 33.6C212.321 34.5333 209.621 35 207.021 35C203.321 35 200.421 34.0333 198.321 32.1ZM200.021 27.9C205.688 25.0667 208.521 22.9333 208.521 21.5C208.521 20.5 207.688 20 206.021 20C205.021 20 203.771 20.8 202.271 22.4C200.771 23.9667 200.021 25.8 200.021 27.9ZM246.641 33.6C244.841 34.2 243.441 34.5 242.441 34.5C241.441 34.5 240.658 34.1333 240.091 33.4C239.524 32.6667 239.008 31.4167 238.541 29.65C238.108 27.8833 237.774 27 237.541 27C236.674 27 235.758 28.3333 234.791 31C234.424 32 233.824 32.9167 232.991 33.75C232.158 34.5833 231.108 35 229.841 35C228.608 35 227.641 34.45 226.941 33.35C226.241 32.25 225.824 31.05 225.691 29.75C225.591 28.45 225.424 27.25 225.191 26.15C224.958 25.05 224.574 24.5 224.041 24.5C223.674 24.5 223.408 24.6 223.241 24.8C223.074 25 222.924 25.2 222.791 25.4C222.691 25.5667 222.574 25.75 222.441 25.95C222.341 26.1167 222.208 26.35 222.041 26.65C221.908 26.95 221.741 27.2667 221.541 27.6C220.874 28.7667 220.341 29.6333 219.941 30.2C219.141 31.4667 217.958 32.4333 216.391 33.1C215.791 33.3667 215.308 33.5 214.941 33.5C213.941 33.5 213.441 33 213.441 32C213.441 31.3667 213.974 30.85 215.041 30.45C216.108 30.05 216.858 29.4833 217.291 28.75C217.758 27.9833 218.274 27.1167 218.841 26.15C219.408 25.1833 219.791 24.5333 219.991 24.2C220.224 23.8667 220.508 23.4667 220.841 23C221.174 22.5 221.474 22.1833 221.741 22.05C222.441 21.6833 223.208 21.5 224.041 21.5C225.408 21.5 226.441 22.05 227.141 23.15C227.841 24.25 228.241 25.45 228.341 26.75C228.474 28.05 228.658 29.25 228.891 30.35C229.124 31.45 229.508 32 230.041 32C230.574 32 231.074 31.5833 231.541 30.75C232.041 29.9167 232.474 29 232.841 28C233.208 27 233.791 26.0833 234.591 25.25C235.424 24.4167 236.408 24 237.541 24C238.408 24 239.041 24.2167 239.441 24.65C239.841 25.05 240.124 25.3667 240.291 25.6C240.491 25.8333 240.658 26.1833 240.791 26.65C240.958 27.1167 241.074 27.4667 241.141 27.7C241.208 27.9 241.308 28.2667 241.441 28.8C241.841 30.6333 242.208 31.5333 242.541 31.5C243.174 31.5 243.991 31.3333 244.991 31C245.991 30.6667 246.541 30.5 246.641 30.5C247.641 30.5 248.141 31 248.141 32C248.141 32.7333 247.641 33.2667 246.641 33.6ZM254.035 31.2C254.568 31.2 255.118 31.4333 255.685 31.9C256.252 32.3667 256.535 32.8667 256.535 33.4C256.535 33.9333 256.302 34.3333 255.835 34.6C255.402 34.8667 254.918 35 254.385 35C253.852 35 253.402 34.7667 253.035 34.3C252.702 33.8 252.535 33.2667 252.535 32.7C252.535 31.7 253.035 31.2 254.035 31.2Z" fill="black"/>
</svg>
