<svg width="198" height="272" viewBox="0 0 198 272" fill="none" xmlns="http://www.w3.org/2000/svg">
<path fill-rule="evenodd" clip-rule="evenodd" d="M126.127 130.082C121.811 125.997 123.197 122.057 121.754 117.08C118.966 110.922 113.213 104.857 106.551 103.544C103.225 101.561 98.8773 102.685 96.6046 105.794C94.47 106.37 94.3994 109.375 93.6859 111.152C92.367 114.643 91.3587 118.2 90.5318 121.827C64.8378 127.272 45.1304 145.081 41.0217 172.092C40.3193 176.018 39.7445 179.969 39.2045 183.921C38.8881 187.325 37.2132 192.727 40.6564 194.93C40.7549 197.372 41.0428 199.838 41.9561 202.136C42.3068 204.427 42.5902 206.733 43.3313 208.941C44.9651 212.764 45.217 216.958 47.0518 220.769C48.3339 223.581 50.2162 225.838 52.5439 227.804C53.5272 228.681 54.8779 229.633 55.0844 231.006C55.0227 233.074 56.5647 236.065 59.0001 235.093C60.7286 235.755 62.5849 235.927 64.4159 235.913C95.4442 234.548 126.537 234.432 157.567 235.959C158.655 236.011 159.688 234.948 159.643 233.845C159.148 221.822 157.927 209.832 156.005 197.958C151.716 173.369 147.135 145.866 126.127 130.082Z" fill="white"/>
<path fill-rule="evenodd" clip-rule="evenodd" d="M92.9309 117.866L93.047 117.54C93.7496 115.563 94.6104 115.416 94.1956 117.332L94.1328 117.621C93.7736 119.261 93.3438 120.955 92.4633 122.389C90.9451 124.863 86.9675 125.78 84.3149 126.66C84.3235 126.722 84.3235 126.784 84.3165 126.843C85.9375 127.095 87.602 127.889 88.9597 128.78C90.2025 129.598 91.3249 130.515 92.1616 131.734L96.2542 129.925C97.605 129.328 98.9661 128.619 100.434 128.379C102.503 128.042 105.692 129.17 105.448 131.827C105.417 132.185 105.195 132.451 104.924 132.582C105.131 132.565 105.34 132.559 105.547 132.566C106.931 132.614 108.887 133.862 108.164 135.506C107.979 135.93 107.446 135.652 107.404 135.297C107.13 132.964 104.761 133.512 103.118 133.894C101.631 134.238 100.162 134.66 98.724 135.176C97.1865 135.728 95.6998 136.431 94.328 137.334C92.9129 138.267 91.59 139.399 91.6772 141.262C91.6805 141.301 91.6197 141.321 91.6021 141.283C90.8718 139.697 92.294 138.024 93.4498 137.11C95.1228 135.789 97.0821 134.838 99.0619 134.096C100.08 133.715 101.13 133.416 102.183 133.15L102.426 133.09C103.045 132.937 103.686 132.762 104.331 132.655C104.093 132.596 103.885 132.42 103.792 132.101L103.78 132.057C102.849 128.305 97.861 131.323 95.8411 132.229C94.396 132.877 92.9337 133.498 91.5046 134.185L91.3205 134.274C90.2125 134.815 89.0578 135.455 88.3131 136.473C86.4028 139.082 88.1179 142.604 88.721 145.357C88.8935 146.147 89.0591 146.984 89.0695 147.795C89.078 148.459 88.878 149.085 88.7162 149.724L88.6218 150.1C88.7053 150.102 88.7907 150.191 88.7628 150.281C88.0849 152.534 86.9379 154.671 85.8207 156.725C84.6808 158.823 83.5078 160.909 82.2494 162.934C77.7734 170.134 72.6491 176.931 67.0281 183.242C64.3335 186.268 61.4193 189.09 58.7891 192.176C57.5656 193.611 56.4206 195.116 55.4653 196.755C54.9494 197.641 54.4858 198.56 54.0954 199.512L54.0183 199.701C53.6982 200.48 53.3836 201.166 52.7881 201.789C52.492 202.099 51.8992 201.968 51.8051 201.525C51.3676 199.438 52.8179 197.185 53.8707 195.481C55.0069 193.643 56.3351 191.929 57.7469 190.302C58.146 189.841 58.5521 189.387 58.9634 188.937C57.123 189.452 55.1847 189.589 53.3093 189.926C51.3885 190.27 49.48 190.68 47.6187 191.276C45.9087 191.823 44.2808 192.545 42.7245 193.45C41.9783 193.884 41.2482 194.362 40.5649 194.896C40.5003 194.945 40.4375 194.999 40.3748 195.05C41.4903 197.903 42.3478 200.863 43.2437 203.789C43.8553 205.789 44.4532 207.795 45.0471 209.801L46.381 214.317C47.3433 217.573 48.1449 221.115 49.841 224.076C50.573 225.353 51.5628 226.508 52.6958 227.435C53.245 227.885 53.8428 228.228 54.4631 228.56C54.8535 228.769 55.1986 229.04 55.5612 229.289C55.7998 229.012 56.1618 228.84 56.6061 228.912L56.6558 228.921C58.0588 229.202 59.5057 228.696 60.7535 228.072C62.0537 227.419 63.3489 226.652 64.4485 225.687C66.6115 223.787 68.405 221.418 70.1534 219.133C76.386 210.978 81.6935 202.046 86.0194 192.703C88.2172 187.951 90.2689 183.12 92.1964 178.247C93.1604 175.813 94.1102 173.374 95.0357 170.923L95.1579 170.596C95.987 168.347 96.7129 165.906 98.0458 163.924C98.0562 163.906 98.0704 163.892 98.0859 163.881C98.0894 163.824 98.107 163.771 98.1348 163.725C98.5479 163.052 99.3391 162.855 100.024 162.543C100.796 162.19 101.567 161.839 102.337 161.488C102.944 161.211 103.832 160.976 104.287 160.451C104.803 159.861 104.976 158.808 105.227 158.077C105.795 156.425 106.41 154.793 107.025 153.159C107.566 151.724 108.033 150.183 108.791 148.846C109.438 147.705 110.363 147.103 111.432 146.446L111.664 146.303C112.111 146.026 112.588 145.694 112.765 145.175C113.054 144.326 112.411 143.515 111.728 143.111C110.21 142.215 108.392 143.249 107.061 144.039C105.722 144.834 104.416 145.789 102.985 146.404C102.954 146.417 102.931 146.369 102.954 146.347C104.104 145.275 105.51 144.391 106.831 143.519L107.16 143.301C108.036 142.717 109.035 142.148 110.091 141.99C109.872 141.915 109.94 141.626 110.149 141.6C112.226 141.342 114.336 141.672 116.392 141.179C118.227 140.739 119.829 139.683 121.112 138.294C122.322 136.984 123.28 135.469 124.174 133.926C124.694 133.028 125.201 132.123 125.727 131.228C125.806 131.094 125.884 130.945 125.965 130.785C125.023 130.563 124.065 129.85 123.425 129.296C122.432 128.438 121.706 127.277 121.201 126.067C120.016 123.227 120.11 119.978 120.997 117.071C121.051 116.894 121.309 116.885 121.36 117.071C122.041 119.561 122.102 122.26 123.172 124.634C123.601 125.585 124.199 126.44 124.934 127.167C125.307 127.535 125.684 127.843 126.141 128.099C126.63 128.374 127.153 128.464 127.542 128.901C127.565 128.926 127.585 128.95 127.605 128.977C127.832 128.946 128.028 128.979 128.185 129.079L128.218 129.101L128.225 129.091C127.523 128.603 126.817 128.12 126.069 127.694C125.871 127.581 126.015 127.309 126.214 127.345L126.706 127.433C128.349 127.731 130.024 128.07 131.525 128.814C133.189 129.641 134.779 130.595 136.295 131.676C139.282 133.801 142.001 136.312 144.381 139.121C148.769 144.303 151.872 150.535 153.791 157.068C156.189 165.231 157.116 173.806 158.129 182.24C158.613 186.277 159.047 190.321 159.433 194.37L159.538 195.474C159.731 197.557 159.94 199.637 160.137 201.714C160.486 202.272 160.51 202.933 160.304 203.508C160.456 205.192 160.592 206.878 160.7 208.569C160.975 212.932 161.153 217.309 161.23 221.682C161.306 226.118 161.148 230.547 161.097 234.982C161.077 236.849 158.298 236.842 158.255 234.982C158.143 230.082 157.798 225.179 157.552 220.282C157.312 215.502 157.088 210.724 156.801 205.948C156.773 205.494 156.747 205.038 156.722 204.583C156.317 204.741 155.815 204.806 155.389 204.892L155.285 204.914C154.428 205.099 153.57 205.232 152.7 205.313L152.419 205.337C151.629 205.393 147.584 205.481 145.193 205.038C145.383 208.162 145.575 211.287 145.785 214.409C146.026 217.971 146.071 221.537 146.247 225.101C146.336 226.883 146.442 228.652 146.666 230.423C146.767 231.229 146.871 232.036 146.996 232.839L147.06 233.24C147.171 233.93 147.31 234.521 147.023 235.137C147.274 235.926 146.883 236.922 145.855 236.842C139.263 236.34 132.656 236.127 126.046 236.097C114.636 236.042 103.232 236.507 91.8259 236.826L88.7434 236.911C78.0597 237.209 67.3232 237.527 56.6891 236.324C56.6662 237.71 54.1215 237.694 54.2575 236.148L54.2908 235.776C54.4439 234.094 54.6424 232.352 55.1551 230.733C54.7298 230.745 54.3028 230.728 53.9019 230.593C53.3321 230.403 52.7847 230.059 52.2897 229.718C51.1881 228.962 50.2574 228.031 49.454 226.956C47.8765 224.846 46.829 222.346 46.0011 219.85C45.1208 217.189 44.3153 214.497 43.5628 211.797L42.753 208.872C41.7249 205.152 40.7154 201.375 40.1029 197.557C40.0368 197.646 39.946 197.722 39.8259 197.777C36.549 199.268 33.7463 196.211 33.1921 193.12C32.8658 191.297 32.9422 189.431 32.9697 187.586L32.9725 187.389C33.0003 185.263 33.0091 183.137 33.1155 181.014C33.4675 173.913 35.0936 167.032 37.6227 160.418C40.0053 154.191 42.8847 147.916 46.5938 142.385C48.3558 139.759 50.3881 137.236 52.8369 135.24C55.42 133.138 58.3239 131.539 61.3654 130.237C64.4731 128.906 67.6957 127.854 70.922 126.86C74.4812 125.764 78.0821 124.822 81.7441 124.16C82.0106 124.112 82.272 124.192 82.4203 124.44C82.5491 124.658 82.6694 124.882 82.7862 125.109C83.2864 124.79 84.0551 124.712 84.5555 124.555C86.1257 124.06 88.951 123.764 90.1957 122.636C91.6147 121.35 92.2969 119.636 92.9309 117.866ZM39.8223 195.545C39.6011 195.751 39.3796 195.957 39.1514 196.15C39.4493 196.022 39.7194 196.108 39.9181 196.296C39.8835 196.046 39.8519 195.795 39.8223 195.545ZM111.862 147.559C111.524 147.772 111.189 147.985 110.884 148.241C109.789 149.163 109.418 150.669 108.962 151.982L108.932 152.066C108.371 153.656 107.805 155.249 107.21 156.826C107.024 157.321 106.85 157.852 106.663 158.386C109.176 160.845 111.746 163.278 114.435 165.536C119.357 169.669 124.72 173.258 130.419 176.182C133.35 177.687 136.375 179.057 139.488 180.119C140.612 180.503 141.757 180.84 142.92 181.09L142.922 181.072C142.927 181.03 142.995 181.01 143.002 181.062L143.009 181.109C143.507 181.214 144.009 181.303 144.513 181.372C145.468 181.502 146.434 181.56 147.398 181.551C147.995 181.546 148.588 181.471 149.177 181.502C146.568 179.108 143.945 176.732 141.315 174.367C136.33 169.882 131.317 165.432 126.296 160.989C124.066 159.016 121.812 157.067 119.592 155.08L117.454 153.158C115.564 151.457 113.687 149.729 112.05 147.785L111.862 147.559ZM89.582 160.746C89.4303 160.556 89.6606 160.315 89.8471 160.476C90.9608 161.436 92.2191 161.857 93.5559 162.373C93.8679 162.494 93.8437 162.999 93.4742 162.994C91.921 162.966 90.5214 161.944 89.582 160.746ZM105.185 137.112L105.296 137.067C106.867 136.44 108.904 136.128 110.14 137.582C111.036 138.638 111.264 140.636 110.097 141.557C109.816 141.779 109.222 141.589 109.4 141.143C109.912 139.871 110.02 138.205 108.408 137.716C107.009 137.29 105.373 138.12 104.1 138.696L103.736 138.86C101.252 139.982 98.7851 141.343 97.2633 143.72C97.2232 143.78 97.1167 143.741 97.143 143.668C98.3577 140.244 102.077 138.4 105.185 137.112ZM86.7847 129.779L86.1809 129.547C84.6453 128.963 82.7332 128.37 81.7807 130.05C81.4237 130.678 81.1165 131.456 80.9837 132.179L80.9667 132.277C80.9301 132.501 80.8829 132.74 81.0399 132.912C81.282 133.182 82.0698 133.313 82.387 133.431L84.3818 134.168L85.378 134.538C85.8311 134.706 86.4168 134.875 86.7514 135.246C87.9227 133.681 89.7859 132.79 91.5445 132.008C89.9602 131.257 88.4248 130.407 86.7847 129.779Z" fill="black"/>
<path fill-rule="evenodd" clip-rule="evenodd" d="M90.8929 43.2694C117.311 41.9468 135.236 63.1555 136.007 71.6128C136.542 77.4835 136.179 85.3131 136.179 90.559C136.179 93.2368 137.506 101.376 136.007 105.279C132.67 113.966 128.899 120.77 118.452 120.77C108.006 120.77 92.08 115.258 86.6114 108.149C85.6129 106.851 73.2057 97.3495 73.2057 89.8811C73.2057 73.9469 72.0425 44.213 90.8929 43.2694Z" fill="white"/>
<path fill-rule="evenodd" clip-rule="evenodd" d="M72.8706 26.0596C74.3762 25.5805 75.337 26.2702 76.0226 27.3387C76.1737 27.3087 76.3199 27.3106 76.4827 27.3505C76.523 27.3605 76.6204 27.3979 76.6941 27.4274C76.7511 27.4517 76.8025 27.4811 76.852 27.5124L76.8815 27.4966C76.9944 27.3711 77.1131 27.2567 77.2412 27.1644C77.5292 26.9572 77.8258 26.8969 78.1073 26.9394L78.2377 26.8906C79.3521 26.4953 80.5603 26.6788 81.3159 27.6561C81.4621 27.8449 81.5803 28.0551 81.6812 28.2769C81.9078 28.3525 82.1205 28.4618 82.3036 28.5963C82.4323 28.5347 82.5682 28.4829 82.7138 28.4448C83.5359 28.2301 84.3997 28.4327 85.0697 28.9458C85.396 29.1955 85.636 29.5081 85.818 29.8651C86.0252 29.9146 86.23 30.0037 86.4219 30.1232C86.5868 30.0397 86.7543 29.9612 86.926 29.9075C87.5536 29.7112 88.2269 29.639 88.8802 29.6885C90.2879 29.7948 91.6493 31.4316 90.7085 32.8371L90.6793 32.8796C90.5599 33.0491 90.456 33.2242 90.3598 33.4021C90.6967 33.5514 91.0212 33.751 91.321 34.0011C92.7874 35.2246 92.9194 37.1106 92.6451 38.8898L92.6335 38.9639H92.6369C93.4161 39.0392 94.0888 39.8675 93.6284 40.6467L93.606 40.6832C92.9829 41.6631 92.4489 42.7456 91.8537 43.7768C90.2064 44.3813 88.618 45.1258 87.1224 46.0279C86.1908 46.8586 85.3038 47.7369 84.5235 48.714C84.1339 49.2019 83.7761 49.7184 83.4472 50.2539C83.7102 50.3825 84.0355 50.376 84.3101 50.1169C86.7536 47.8119 89.7056 46.1943 92.8489 45.1102C93.0753 45.032 93.2238 44.8847 93.3071 44.7105C94.7025 44.3057 96.1225 43.9919 97.5566 43.7697C97.9519 43.3863 98.3661 43.0197 98.7596 42.6379C99.2621 42.1507 99.8915 42.1578 100.362 42.4638C100.595 42.3555 100.834 42.2598 101.077 42.1738L101.227 42.1216C101.29 42.1006 101.35 42.0763 101.412 42.0572C103.094 41.5335 104.633 41.7279 106.288 42.1582L106.5 42.2144C107.272 42.4228 107.758 42.3895 108.505 42.1977L108.589 42.1757C109.383 41.9649 110.232 41.8088 111.044 42.0307C111.893 42.2631 112.456 42.7797 113.034 43.4039L113.092 43.4667C113.362 43.7606 113.518 43.7926 113.871 43.7855L114.25 43.7741C115.678 43.7342 117.077 43.7955 118.146 44.92C118.542 45.3359 118.966 45.9244 119.221 46.4616L119.258 46.5417C119.27 46.5678 119.28 46.5896 119.29 46.6091C119.443 46.5839 119.682 46.4851 119.796 46.4626C121.352 46.1553 122.651 46.6288 123.65 47.8774C123.869 48.1506 124.199 48.6872 124.428 48.9821C124.508 49.0513 124.584 49.1254 124.655 49.2033C125.031 49.4473 125.562 49.4319 125.983 49.5174C127.13 49.7498 128.356 50.1938 128.939 51.3046C129.182 51.7683 129.272 52.2755 129.375 52.7823C129.761 53.0401 130.063 53.4116 130.297 53.8139C130.583 54.3021 130.704 54.9003 131.032 55.3614C131.271 55.6964 131.635 55.8752 131.982 56.08L132.114 56.1591C133.142 56.7819 133.946 57.473 134.284 58.6932L134.313 58.8017C134.368 58.9886 134.561 59.5221 134.393 59.4419C134.538 59.523 134.783 59.5516 134.915 59.5959C135.628 59.836 136.247 60.2239 136.627 60.905C136.916 61.4234 136.968 61.9639 137.051 62.5354L137.086 62.7661C137.095 62.8219 137.106 62.8868 137.117 62.9496L137.128 63.0115L137.13 63.0129C137.259 63.0697 137.386 63.1312 137.511 63.1976C138.101 63.5516 138.505 64.166 138.505 64.8773C138.505 65.2226 138.399 65.4916 138.245 65.7316C138.37 65.924 138.466 66.1289 138.539 66.3573C138.683 66.8031 138.693 67.2907 138.644 67.752C138.587 68.3056 138.447 68.8097 138.283 69.3384C138.219 69.5425 138.194 69.8276 138.098 70.0224C138.274 70.2508 138.379 70.5299 138.347 70.8052C138.3 71.1991 138.123 71.6596 137.773 71.8805C137.602 72.741 137.233 73.6203 136.87 74.3239C136.828 74.4055 136.777 74.4782 136.722 74.5385C136.772 77.3473 136.57 80.1757 136.556 82.9807C136.54 86.0342 136.603 89.0897 136.708 92.1396C136.884 97.1946 137.513 102.422 136.047 107.351C134.848 111.385 132.446 114.849 129.225 117.475C125.927 120.161 121.952 121.716 117.73 121.959C115.583 122.081 113.399 121.832 111.321 121.266L111.099 121.205C109.089 120.643 106.761 119.784 105.282 118.28C104.501 117.485 105.291 115.802 106.436 116.265C107.571 116.724 108.589 117.404 109.714 117.883C110.72 118.311 111.77 118.639 112.833 118.88C114.964 119.368 117.225 119.475 119.391 119.171C127.214 118.082 133.309 111.469 134.512 103.628C134.844 101.457 134.838 99.2498 134.816 97.0557L134.791 94.6516C134.772 92.6404 134.765 90.6281 134.837 88.6178C134.93 86.0309 135.109 83.4455 135.35 80.8694L135.475 79.5289C135.624 77.9604 135.791 76.3801 136.08 74.8331C135.844 74.8457 133.977 71.5959 132.942 69.7799C132.564 69.4747 132.245 69.0955 132.121 68.6049C132.096 68.5026 132.083 68.3993 132.075 68.2959C131.85 67.9362 131.612 67.5858 131.362 67.2458L131.308 67.221C131.266 67.2014 131.233 67.1852 131.214 67.1741C130.667 66.8588 130.211 66.3812 129.899 65.8276C129.794 65.641 129.708 65.4462 129.637 65.2469C129.192 64.8021 128.726 64.3777 128.237 63.9797C128.189 63.9407 128.139 63.9041 128.091 63.8656C127.468 63.6289 126.921 63.2723 126.522 62.7586C126.355 62.6536 126.187 62.5507 126.018 62.4499C125.51 62.4451 124.997 62.3246 124.498 62.1158C123.585 61.734 122.855 60.9794 121.938 60.6296C120.967 60.2601 119.945 61.1 118.914 60.9485C118.651 60.9098 118.39 60.8284 118.147 60.7102C117.567 61.3362 116.951 61.9263 116.271 62.4428C115.285 63.1926 114.277 63.5352 113.134 63.8739C112.568 64.421 111.934 64.9513 111.169 65.0292C109.4 66.4692 107.507 67.6839 105.516 68.8116C105.195 68.993 104.877 69.0748 104.575 69.0769C103.95 69.4761 103.268 69.7832 102.548 69.9958C102.322 70.0623 102.089 70.0764 101.861 70.0478L101.235 70.5661C100.8 70.9266 100.336 71.0989 99.8925 71.1101C99.6224 71.3207 99.3425 71.5199 99.0543 71.7116C98.7457 71.9172 98.3453 72.0024 97.943 71.9775C97.3286 72.5893 96.5319 72.6535 95.8647 72.3718C95.7731 72.4264 95.6788 72.4782 95.5728 72.5292C95.4288 72.5985 95.2786 72.6571 95.1254 72.7045C94.4296 73.4678 93.4112 73.868 92.3907 73.7634C91.6286 74.2385 90.7417 74.4857 89.8745 74.4301C89.7422 75.1065 89.6328 75.7853 89.5402 76.4665L89.5308 76.9655C89.5298 77.0463 89.5296 77.1094 89.5306 77.1509L89.5312 77.1673C89.6161 79.3549 89.6624 81.5435 89.7463 83.7314L89.7539 83.904C89.8494 85.8155 90.3114 89.3005 87.5513 89.2246C86.5228 89.1963 85.5024 88.4253 84.7016 87.7914L84.5887 87.7019C84.5273 87.6533 84.4644 87.6034 84.4011 87.5527C83.8026 87.4735 83.2124 87.3254 82.608 87.3029C81.862 87.2762 81.0777 87.3543 80.3508 87.5264C79.068 87.8298 77.827 88.4244 76.9904 89.5012C76.9172 89.5952 76.8492 89.6946 76.7847 89.794C76.7255 89.998 76.6244 90.1861 76.4902 90.3493C75.6989 92.1609 76.1557 94.5546 77.0305 96.2116C78.0729 98.1854 79.7223 99.5501 81.7963 100.237L81.9003 100.271C83.3174 100.722 83.8594 101.595 84.6298 102.808C85.3514 103.948 86.1793 105.009 87.0682 106.016C88.7885 107.966 91.2027 109.576 92.203 112.044C92.4051 112.541 91.8265 113.009 91.3785 112.881C89.6234 112.379 88.3928 111.107 87.117 109.842C86.234 108.966 85.3848 108.055 84.5881 107.097C84.421 107.176 84.2371 107.229 84.0456 107.253C83.2002 107.358 82.3284 107.314 81.5883 106.85C81.2472 106.882 80.8919 106.761 80.628 106.515C80.3859 106.289 80.1771 106.044 80.0007 105.783C79.7326 105.807 79.4694 105.814 79.2183 105.772C79.0971 105.761 78.9798 105.728 78.8723 105.675C78.6725 105.594 78.4831 105.471 78.3091 105.281C77.9567 104.896 77.8216 104.352 77.8866 103.835C77.8169 103.82 77.7477 103.801 77.6794 103.778C77.2102 103.616 76.8491 103.295 76.6183 102.858C76.2054 102.623 75.8336 102.303 75.5521 101.963C75.2093 101.55 74.9506 101.084 74.7986 100.57C74.6416 100.495 74.4891 100.409 74.343 100.309C73.2964 99.5877 72.6972 98.2343 73.1082 96.9829L73.1221 96.9436C73.143 96.8872 73.1808 96.7912 73.227 96.6829C73.2204 96.5947 73.2134 96.5065 73.2087 96.4181L73.1943 96.1516L72.9846 96.061C71.9388 95.6376 71.2319 95.0661 71.1062 93.8683C71.08 93.6206 71.1745 93.3679 71.3235 93.1568L71.3228 93.0904C71.2549 93.0546 71.1902 93.0179 71.1332 92.981C70.5631 92.6103 70.2128 91.946 70.252 91.259C70.288 90.6328 70.6288 90.1336 71.0119 89.6719L71.1214 89.5424C71.1305 89.5319 71.1406 89.5202 71.1515 89.5076L70.8982 89.4265C70.7339 89.3732 70.5834 89.3202 70.4751 89.2585C70.0561 89.0195 69.7008 88.6964 69.4818 88.2858C69.4499 88.2349 69.4174 88.1849 69.3882 88.1306C69.1053 87.6052 69.0683 86.932 69.2508 86.368C69.2724 86.3014 69.3003 86.2388 69.3289 86.1765C68.5585 85.9001 67.9654 85.3288 67.8939 84.2759C67.8659 83.8618 67.9549 83.4492 68.1486 83.096C68.1057 82.8581 68.0968 82.6114 68.1245 82.3675C67.8535 82.1068 67.6429 81.7928 67.5488 81.4097C67.3709 80.686 67.6966 79.9974 68.1808 79.3659C68.0016 78.8666 67.9924 78.3033 68.197 77.8006C68.1182 77.5497 68.0734 77.2845 68.071 77.0121C68.0656 76.409 68.2481 75.9053 68.5428 75.4768C68.1285 74.9612 67.9317 74.276 68.1765 73.6338C68.3506 73.1775 68.5496 72.76 68.779 72.3732C68.6586 72.079 68.5885 71.7495 68.5885 71.3806C68.5885 70.7171 68.8329 70.1913 69.2067 69.7611C69.0444 68.9752 69.3744 68.0182 70.0935 67.6722C70.3646 67.5416 70.7274 67.4053 71.1273 67.2992C71.2774 66.8219 71.434 66.3466 71.5994 65.8746C71.86 65.1317 72.1403 64.3991 72.4373 63.675C72.2663 63.8275 72.087 63.9696 71.9015 64.0984C71.315 64.8574 70.5375 65.515 69.884 65.9084C68.5887 66.6883 67.1072 66.2256 66.4677 64.9206C65.8667 65.3773 65.1455 65.6477 64.3759 65.5553C63.5034 65.4504 62.7057 64.8752 62.4878 63.9779C62.4562 63.848 62.4372 63.7077 62.4353 63.5665C61.9349 63.9291 61.4113 64.2629 60.837 64.454C60.1055 64.6974 59.3588 64.1135 59.2623 63.386C59.2241 63.0977 59.2771 62.8429 59.3899 62.6277L59.3184 62.5991C59.3066 62.594 59.2947 62.5888 59.283 62.5831C58.8994 62.4002 58.6015 62.0649 58.46 61.6781C57.6293 62.0053 56.6783 61.6218 56.4148 60.6919C56.1011 59.5865 56.0821 58.4669 56.3277 57.3901C55.4475 56.739 54.874 55.6442 54.7764 54.4998C54.7051 53.6783 54.8977 52.92 55.2371 52.2188C54.4046 51.9019 54.1185 50.7912 54.5141 49.9909C53.9886 49.6847 53.6459 49.0355 53.6383 48.4035C53.4035 48.0415 53.3284 47.5754 53.5231 47.0531C53.7798 46.3648 54.3027 45.7891 54.9014 45.3375C54.6403 44.8748 54.4463 44.3701 54.3259 43.8487C53.8298 43.7009 53.4295 43.2924 53.3479 42.6791C53.2458 41.9101 53.743 41.2582 54.4123 41.0861C54.4866 40.8519 54.5772 40.6228 54.6893 40.4028C54.3581 39.6044 54.4069 38.5948 54.8339 37.7218C55.2122 36.95 55.8274 36.4781 56.5682 36.1516C56.3799 35.4951 56.6292 34.8404 57.2567 34.3525C58.0227 33.7561 58.8628 33.3003 59.7456 32.9783C59.6672 31.9096 60.106 30.8152 61.1433 30.4426C61.4206 30.3431 61.7092 30.3063 62.0026 30.3076C62.2155 29.8362 62.5709 29.4529 63.0347 29.1137C63.7366 28.6005 65.0482 28.914 65.4374 29.7187L65.4564 29.76C65.4763 29.8056 65.4977 29.8473 65.5181 29.8915C65.5965 29.5008 65.7799 29.1318 66.0746 28.8292C66.8114 28.0729 67.5893 28.0587 68.3379 28.3821C68.4752 28.0354 68.6415 27.7058 68.8437 27.4043C69.5776 26.3106 70.7902 26.1713 71.6781 26.7636C72.034 26.4451 72.4312 26.1996 72.8706 26.0596ZM78.1182 91.8273C79.5961 91.2383 81.3896 91.4123 82.8502 91.9781L82.9572 92.0205C84.2473 92.5398 86.3432 93.6947 86.5958 95.1719C86.7265 95.9368 86.0121 96.5984 85.2868 96.1958C84.6559 95.8461 84.3021 95.1417 83.8001 94.6307C83.3035 94.1252 82.7474 93.7189 82.141 93.3621C80.8756 92.6187 79.5455 92.3295 78.1182 92.1149C77.9579 92.0919 78.0015 91.8735 78.1182 91.8273Z" fill="black"/>
<path fill-rule="evenodd" clip-rule="evenodd" d="M118.1 107.687C116.929 107.2 115.883 106.389 115.119 105.352C114.853 104.991 114.784 104.611 114.84 104.263C114.903 103.871 115.13 103.517 115.441 103.279C115.752 103.04 116.141 102.922 116.517 102.982C116.844 103.034 117.17 103.217 117.428 103.595L117.482 103.67C117.936 104.296 118.528 104.809 119.203 105.14C119.853 105.459 120.58 105.608 121.333 105.522C122.766 105.357 123.754 104.568 124.804 103.496C124.934 103.361 125.065 103.221 125.196 103.079C125.278 102.951 125.393 102.868 125.52 102.825C125.662 102.777 125.822 102.78 125.968 102.832C126.109 102.882 126.236 102.977 126.32 103.104C126.401 103.224 126.447 103.373 126.432 103.544C126.336 104.654 125.765 105.645 124.955 106.423C124.055 107.288 122.863 107.886 121.74 108.095C120.503 108.326 119.242 108.161 118.1 107.687ZM122.323 90.5544C123.639 91.3688 125.645 93.2679 124.229 95.2869C122.562 97.0671 120.163 95.026 118.98 94.1028C117.884 93.3874 116.652 95.2274 117.669 96.0628C126.214 102.503 129.681 90.7674 122.989 89.5969C122.252 89.4679 121.978 90.3025 122.323 90.5544ZM107.011 83.0632C107.157 81.2257 109.906 80.8084 110.179 82.6267C110.424 84.2555 110.136 85.7518 109.415 87.2182C108.726 88.6192 106.996 87.9656 106.865 86.6899C106.689 84.9798 106.921 84.2062 107.011 83.0632ZM127.938 82.2497C128.321 81.7387 128.874 81.3899 129.537 81.587C131.609 82.2032 130.998 85.197 130.271 86.6542C129.876 87.4456 128.598 87.6462 128.02 86.9495C127.079 85.8132 126.628 83.544 127.825 82.4248C127.857 82.367 127.894 82.3086 127.938 82.2497ZM109.386 75.0228L109.713 74.9645C110.725 74.7863 111.984 74.615 112.7 75.4435C113.08 75.8828 113.211 76.6993 112.7 77.1198C111.802 77.8597 110.809 77.573 109.733 77.6356C108.846 77.6874 107.994 77.8368 107.14 78.0854C105.266 78.6307 103.739 79.626 102.138 80.719C101.928 80.8624 101.714 80.589 101.814 80.389C102.738 78.5467 104.529 77.0334 106.322 76.111C107.279 75.6186 108.327 75.2102 109.386 75.0228ZM126.049 74.1976L126.3 74.2497C129.025 74.8297 132.566 75.9882 133.857 78.7134C133.906 79.0988 133.854 79.1813 133.812 79.2353L133.798 79.2533C133.763 79.2993 133.735 79.3629 133.571 79.4153C133.526 79.4043 133.48 79.3926 133.433 79.3802C132.842 79.2223 132.374 79.0049 131.92 78.7793L131.429 78.5329C130.859 78.2484 130.284 77.9742 129.675 77.7718C128.374 77.3399 127.036 77.0357 125.678 76.8733C125.383 76.8381 125.1 76.7369 124.876 76.5635C124.664 76.399 124.501 76.1711 124.427 75.8683C124.332 75.4763 124.359 75.1796 124.566 74.826C124.721 74.5604 124.943 74.3764 125.199 74.2707C125.459 74.1629 125.755 74.1375 126.049 74.1976Z" fill="black"/>
</svg>
