<svg width="113" height="16" viewBox="0 0 113 16" fill="none" xmlns="http://www.w3.org/2000/svg">
<path d="M9.15483 4.63778C9.09801 4.06487 8.85417 3.61979 8.4233 3.30256C7.99242 2.98532 7.40767 2.8267 6.66903 2.8267C6.16714 2.8267 5.74337 2.89773 5.39773 3.03977C5.05208 3.17708 4.78693 3.36884 4.60227 3.61506C4.42235 3.86127 4.33239 4.14062 4.33239 4.45312C4.32292 4.71354 4.37737 4.94081 4.49574 5.13494C4.61884 5.32907 4.78693 5.49716 5 5.6392C5.21307 5.77651 5.45928 5.89725 5.73864 6.00142C6.01799 6.10085 6.31629 6.18608 6.63352 6.2571L7.94034 6.5696C8.57481 6.71165 9.1572 6.90104 9.6875 7.13778C10.2178 7.37453 10.6771 7.66572 11.0653 8.01136C11.4536 8.35701 11.7543 8.7642 11.9673 9.23295C12.1851 9.7017 12.2964 10.2391 12.3011 10.8452C12.2964 11.7353 12.0691 12.5071 11.6193 13.1605C11.1742 13.8092 10.5303 14.3134 9.6875 14.6733C8.84943 15.0284 7.83854 15.206 6.65483 15.206C5.48059 15.206 4.45786 15.026 3.58665 14.6662C2.72017 14.3063 2.04309 13.7737 1.5554 13.0682C1.07244 12.358 0.819129 11.4796 0.795455 10.4332H3.77131C3.80445 10.9209 3.94413 11.3281 4.19034 11.6548C4.44129 11.9768 4.77509 12.2206 5.19176 12.3864C5.61316 12.5473 6.08902 12.6278 6.61932 12.6278C7.14015 12.6278 7.59233 12.5521 7.97585 12.4006C8.36411 12.2491 8.66477 12.0384 8.87784 11.7685C9.09091 11.4986 9.19744 11.1884 9.19744 10.8381C9.19744 10.5114 9.10038 10.2367 8.90625 10.0142C8.71686 9.79167 8.4375 9.60227 8.06818 9.44602C7.7036 9.28977 7.25616 9.14773 6.72585 9.01989L5.14205 8.62216C3.91572 8.32386 2.94744 7.85748 2.23722 7.22301C1.52699 6.58854 1.17424 5.7339 1.17898 4.65909C1.17424 3.77841 1.40862 3.009 1.8821 2.35085C2.36032 1.69271 3.0161 1.17898 3.84943 0.809659C4.68277 0.44034 5.62973 0.255681 6.69034 0.255681C7.76989 0.255681 8.71212 0.44034 9.51705 0.809659C10.3267 1.17898 10.9564 1.69271 11.4062 2.35085C11.8561 3.009 12.0881 3.77131 12.1023 4.63778H9.15483ZM17.4237 15.206C16.7276 15.206 16.1074 15.0852 15.5629 14.8438C15.0183 14.5975 14.5875 14.2353 14.2702 13.7571C13.9577 13.2741 13.8015 12.6728 13.8015 11.9531C13.8015 11.3471 13.9128 10.8381 14.1353 10.4261C14.3578 10.0142 14.6609 9.68277 15.0444 9.43182C15.4279 9.18087 15.8635 8.99148 16.3512 8.86364C16.8436 8.7358 17.3597 8.64583 17.8995 8.59375C18.534 8.52746 19.0453 8.46591 19.4336 8.40909C19.8219 8.34754 20.1036 8.25758 20.2788 8.1392C20.454 8.02083 20.5415 7.84564 20.5415 7.61364V7.57102C20.5415 7.12121 20.3995 6.7732 20.1154 6.52699C19.8361 6.28078 19.4383 6.15767 18.9222 6.15767C18.3777 6.15767 17.9445 6.27841 17.6225 6.51989C17.3005 6.75663 17.0875 7.05492 16.9833 7.41477L14.185 7.1875C14.3271 6.52462 14.6064 5.9517 15.0231 5.46875C15.4397 4.98106 15.9772 4.60701 16.6353 4.34659C17.2982 4.08144 18.0652 3.94886 18.9364 3.94886C19.5425 3.94886 20.1225 4.01989 20.6765 4.16193C21.2352 4.30398 21.73 4.52415 22.1609 4.82244C22.5965 5.12074 22.9397 5.50426 23.1907 5.97301C23.4416 6.43703 23.5671 6.99337 23.5671 7.64205V15H20.6978V13.4872H20.6126C20.4374 13.8281 20.203 14.1288 19.9094 14.3892C19.6159 14.6449 19.2631 14.8461 18.8512 14.9929C18.4393 15.1349 17.9634 15.206 17.4237 15.206ZM18.2901 13.1179C18.7352 13.1179 19.1282 13.0303 19.4691 12.8551C19.81 12.6752 20.0775 12.4337 20.2717 12.1307C20.4658 11.8277 20.5629 11.4844 20.5629 11.1009V9.94318C20.4682 10.0047 20.338 10.0616 20.1722 10.1136C20.0112 10.161 19.829 10.206 19.6254 10.2486C19.4218 10.2865 19.2182 10.322 19.0146 10.3551C18.811 10.3835 18.6263 10.4096 18.4606 10.4332C18.1055 10.4853 17.7953 10.5682 17.5302 10.6818C17.265 10.7955 17.0591 10.9493 16.9123 11.1435C16.7655 11.3329 16.6921 11.5696 16.6921 11.8537C16.6921 12.2656 16.8413 12.5805 17.1396 12.7983C17.4426 13.0114 17.8261 13.1179 18.2901 13.1179ZM31.717 4.09091V6.36364H25.1474V4.09091H31.717ZM26.6388 1.47727H29.6644V11.6477C29.6644 11.9271 29.707 12.1449 29.7923 12.3011C29.8775 12.4527 29.9959 12.5592 30.1474 12.6207C30.3036 12.6823 30.4835 12.7131 30.6871 12.7131C30.8292 12.7131 30.9712 12.7012 31.1133 12.6776C31.2553 12.6491 31.3642 12.6278 31.44 12.6136L31.9158 14.8651C31.7643 14.9124 31.5513 14.9669 31.2766 15.0284C31.002 15.0947 30.6682 15.1349 30.2752 15.1491C29.546 15.1776 28.9068 15.0805 28.3576 14.858C27.8131 14.6354 27.3893 14.2898 27.0863 13.821C26.7833 13.3523 26.6341 12.7604 26.6388 12.0455V1.47727ZM40.6836 10.3551V4.09091H43.7092V15H40.8043V13.0185H40.6907C40.4445 13.6577 40.0349 14.1714 39.462 14.5597C38.8938 14.9479 38.2002 15.142 37.381 15.142C36.6519 15.142 36.0103 14.9763 35.4563 14.6449C34.9023 14.3134 34.4691 13.8423 34.1566 13.2315C33.8488 12.6207 33.6926 11.8892 33.6879 11.0369V4.09091H36.7134V10.4972C36.7182 11.1411 36.891 11.6501 37.2319 12.0241C37.5728 12.3982 38.0297 12.5852 38.6026 12.5852C38.9672 12.5852 39.3081 12.5024 39.6254 12.3366C39.9426 12.1662 40.1983 11.9152 40.3924 11.5838C40.5913 11.2524 40.6883 10.8428 40.6836 10.3551ZM46.1861 15V0.454545H51.9247C53.0279 0.454545 53.9678 0.665246 54.7443 1.08665C55.5208 1.50331 56.1127 2.08333 56.5199 2.8267C56.9318 3.56534 57.1378 4.41761 57.1378 5.38352C57.1378 6.34943 56.9295 7.2017 56.5128 7.94034C56.0961 8.67898 55.4924 9.25426 54.7017 9.66619C53.9157 10.0781 52.964 10.2841 51.8466 10.2841H48.1889V7.8196H51.3494C51.9413 7.8196 52.429 7.7178 52.8125 7.5142C53.2008 7.30587 53.4896 7.01941 53.679 6.65483C53.8731 6.28551 53.9702 5.86174 53.9702 5.38352C53.9702 4.90057 53.8731 4.47917 53.679 4.11932C53.4896 3.75473 53.2008 3.47301 52.8125 3.27415C52.4242 3.07055 51.9318 2.96875 51.3352 2.96875H49.2614V15H46.1861ZM63.8743 15.2131C62.7521 15.2131 61.7862 14.9858 60.9766 14.5312C60.1716 14.072 59.5514 13.4233 59.1158 12.5852C58.6802 11.7424 58.4624 10.7457 58.4624 9.59517C58.4624 8.47301 58.6802 7.48816 59.1158 6.64062C59.5514 5.79309 60.1645 5.13258 60.9553 4.65909C61.7507 4.18561 62.6835 3.94886 63.7536 3.94886C64.4732 3.94886 65.1432 4.06487 65.7635 4.29688C66.3885 4.52415 66.933 4.86742 67.397 5.3267C67.8658 5.78598 68.2304 6.36364 68.4908 7.05966C68.7512 7.75095 68.8814 8.56061 68.8814 9.48864V10.3196H59.6697V8.4446H66.0334C66.0334 8.009 65.9387 7.62311 65.7493 7.28693C65.5599 6.95076 65.2971 6.68797 64.9609 6.49858C64.6295 6.30445 64.2436 6.20739 63.8033 6.20739C63.344 6.20739 62.9368 6.31392 62.5817 6.52699C62.2313 6.73532 61.9567 7.01705 61.7578 7.37216C61.5589 7.72254 61.4571 8.11316 61.4524 8.54403V10.3267C61.4524 10.8665 61.5518 11.3329 61.7507 11.7259C61.9543 12.1188 62.2408 12.4219 62.6101 12.6349C62.9794 12.848 63.4174 12.9545 63.924 12.9545C64.2602 12.9545 64.5679 12.9072 64.8473 12.8125C65.1267 12.7178 65.3658 12.5758 65.5646 12.3864C65.7635 12.197 65.915 11.965 66.0192 11.6903L68.8175 11.875C68.6754 12.5473 68.3842 13.1345 67.9439 13.6364C67.5083 14.1335 66.9448 14.5218 66.2536 14.8011C65.567 15.0758 64.7739 15.2131 63.8743 15.2131ZM70.8558 15V4.09091H73.7891V5.99432H73.9027C74.1016 5.31723 74.4354 4.80587 74.9041 4.46023C75.3729 4.10985 75.9126 3.93466 76.5234 3.93466C76.675 3.93466 76.8383 3.94413 77.0135 3.96307C77.1887 3.98201 77.3426 4.00805 77.4751 4.04119V6.72585C77.3331 6.68324 77.1366 6.64536 76.8857 6.61222C76.6347 6.57907 76.4051 6.5625 76.1967 6.5625C75.7517 6.5625 75.3539 6.65956 75.0036 6.85369C74.6579 7.04309 74.3833 7.30824 74.1797 7.64915C73.9808 7.99006 73.8814 8.38305 73.8814 8.82812V15H70.8558ZM88.1161 7.2017L85.3462 7.37216C85.2989 7.13542 85.1971 6.92235 85.0408 6.73295C84.8846 6.53883 84.6786 6.38494 84.4229 6.27131C84.172 6.15294 83.8713 6.09375 83.521 6.09375C83.0522 6.09375 82.6568 6.19318 82.3349 6.39205C82.0129 6.58617 81.8519 6.84659 81.8519 7.1733C81.8519 7.43371 81.9561 7.65388 82.1644 7.83381C82.3728 8.01373 82.7302 8.15814 83.2369 8.26705L85.2113 8.66477C86.2719 8.88258 87.0626 9.23295 87.5835 9.71591C88.1043 10.1989 88.3647 10.8333 88.3647 11.6193C88.3647 12.3343 88.154 12.9616 87.7326 13.5014C87.3159 14.0412 86.743 14.4626 86.0138 14.7656C85.2894 15.0639 84.4537 15.2131 83.5067 15.2131C82.0626 15.2131 80.9121 14.9124 80.055 14.3111C79.2028 13.705 78.7032 12.8812 78.5565 11.8395L81.5323 11.6832C81.6223 12.1236 81.8401 12.4598 82.1857 12.6918C82.5314 12.919 82.9741 13.0327 83.5138 13.0327C84.0442 13.0327 84.4703 12.9309 84.7923 12.7273C85.119 12.5189 85.2847 12.2514 85.2894 11.9247C85.2847 11.6501 85.1687 11.4252 84.9414 11.25C84.7141 11.0701 84.3638 10.9328 83.8903 10.8381L82.0011 10.4616C80.9357 10.2486 80.1426 9.87926 79.6218 9.35369C79.1057 8.82812 78.8477 8.15814 78.8477 7.34375C78.8477 6.64299 79.0371 6.0393 79.4158 5.53267C79.7994 5.02604 80.3368 4.63542 81.0281 4.3608C81.7241 4.08617 82.5385 3.94886 83.4712 3.94886C84.8491 3.94886 85.9334 4.24006 86.7241 4.82244C87.5195 5.40483 87.9835 6.19792 88.1161 7.2017ZM95.2415 15.2131C94.1193 15.2131 93.1534 14.9858 92.3438 14.5312C91.5388 14.072 90.9186 13.4233 90.483 12.5852C90.0473 11.7424 89.8295 10.7457 89.8295 9.59517C89.8295 8.47301 90.0473 7.48816 90.483 6.64062C90.9186 5.79309 91.5317 5.13258 92.3224 4.65909C93.1179 4.18561 94.0507 3.94886 95.1207 3.94886C95.8404 3.94886 96.5104 4.06487 97.1307 4.29688C97.7557 4.52415 98.3002 4.86742 98.7642 5.3267C99.233 5.78598 99.5975 6.36364 99.858 7.05966C100.118 7.75095 100.249 8.56061 100.249 9.48864V10.3196H91.0369V8.4446H97.4006C97.4006 8.009 97.3059 7.62311 97.1165 7.28693C96.9271 6.95076 96.6643 6.68797 96.3281 6.49858C95.9967 6.30445 95.6108 6.20739 95.1705 6.20739C94.7112 6.20739 94.304 6.31392 93.9489 6.52699C93.5985 6.73532 93.3239 7.01705 93.125 7.37216C92.9261 7.72254 92.8243 8.11316 92.8196 8.54403V10.3267C92.8196 10.8665 92.919 11.3329 93.1179 11.7259C93.3215 12.1188 93.608 12.4219 93.9773 12.6349C94.3466 12.848 94.7846 12.9545 95.2912 12.9545C95.6274 12.9545 95.9351 12.9072 96.2145 12.8125C96.4938 12.7178 96.733 12.5758 96.9318 12.3864C97.1307 12.197 97.2822 11.965 97.3864 11.6903L100.185 11.875C100.043 12.5473 99.7514 13.1345 99.3111 13.6364C98.8755 14.1335 98.312 14.5218 97.6207 14.8011C96.9342 15.0758 96.1411 15.2131 95.2415 15.2131ZM105.249 8.69318V15H102.223V4.09091H105.107V6.01562H105.234C105.476 5.38116 105.881 4.87926 106.449 4.50994C107.017 4.13589 107.706 3.94886 108.516 3.94886C109.273 3.94886 109.934 4.11458 110.497 4.44602C111.061 4.77746 111.499 5.25095 111.811 5.86648C112.124 6.47727 112.28 7.20644 112.28 8.05398V15H109.254V8.59375C109.259 7.92614 109.089 7.4053 108.743 7.03125C108.397 6.65246 107.921 6.46307 107.315 6.46307C106.908 6.46307 106.548 6.55066 106.236 6.72585C105.928 6.90104 105.687 7.15672 105.511 7.4929C105.341 7.82434 105.253 8.22443 105.249 8.69318Z" fill="black" fill-opacity="0.8"/>
</svg>
